<svg xmlns="http://www.w3.org/2000/svg" height="312.80777" width="224.22508"><symbol viewBox="0 0 222.23162 310.81431" id="icon">
  <g transform="translate(-260.93137,-370.77397)">
    <g transform="translate(-6443.9527,3117.0866)">
      <g transform="matrix(0.30106207,0,0,0.30106207,5623.2929,-1949.6699)" style="fill:var(--color-card-suit-red, #d40000);fill-opacity:1">
        <path d="m 3706.5883,-2464.9222 c 32.9523,-32.1577 54.5938,-67.2198 75.2905,-100.9391 18.1503,37.1021 44.1966,69.5614 72.3644,100.9391 -30.1372,31.1184 -53.4943,64.3931 -72.2743,99.3741 -20.8183,-35.8586 -42.7355,-68.3301 -75.3806,-99.3741 z" style="fill:var(--color-card-suit-red, #d40000);fill-opacity:1" />
        <path style="fill:var(--color-card-suit-red, #d40000);fill-opacity:1" d="m 3706.5883,-1804.4371 c 32.9523,-32.1577 54.5938,-67.2198 75.2905,-100.9391 18.1503,37.1021 44.1966,69.5614 72.3645,100.9391 -30.1373,31.1184 -53.4944,64.3931 -72.2743,99.3741 -20.8183,-35.8586 -42.7355,-68.3301 -75.3807,-99.3741 z" />
        <path d="m 4077.0527,-2464.9222 c 32.9523,-32.1577 54.5938,-67.2198 75.2905,-100.9391 18.1503,37.1021 44.1966,69.5614 72.3645,100.9391 -30.1373,31.1184 -53.4944,64.3931 -72.2743,99.3741 -20.8183,-35.8586 -42.7355,-68.3301 -75.3807,-99.3741 z" style="fill:var(--color-card-suit-red, #d40000);fill-opacity:1" />
        <path style="fill:var(--color-card-suit-red, #d40000);fill-opacity:1" d="m 4077.0527,-1804.4371 c 32.9523,-32.1577 54.5938,-67.2198 75.2905,-100.9391 18.1503,37.1021 44.1966,69.5614 72.3645,100.9391 -30.1373,31.1184 -53.4944,64.3931 -72.2743,99.3741 -20.8183,-35.8586 -42.7355,-68.3301 -75.3807,-99.3741 z" />
        <path style="fill:var(--color-card-suit-red, #d40000);fill-opacity:1" d="m 4240.4378,-1821.6751 c 13.4987,-13.1732 22.3638,-27.5361 30.8422,-41.349 7.435,15.1986 18.1048,28.4953 29.6436,41.349 -12.3457,12.7474 -21.9137,26.3781 -29.6068,40.7078 -8.5281,-14.6892 -17.5062,-27.9909 -30.879,-40.7078 z" />
        <path d="m 3618.5773,-2436.54 c 13.4987,-13.1732 22.3638,-27.5361 30.8422,-41.349 7.435,15.1986 18.1048,28.4953 29.6436,41.349 -12.3457,12.7474 -21.9137,26.3781 -29.6068,40.7078 -8.5281,-14.6892 -17.5062,-27.9909 -30.879,-40.7078 z" style="fill:var(--color-card-suit-red, #d40000);fill-opacity:1" />
        <path style="fill:var(--color-card-suit-red, #d40000);fill-opacity:1" d="m 3650.1724,-2493.7296 0,-9.3439 8.5863,0 0,-15.399 -42.9315,0 0,-10.865 46.4525,-70.0793 7.5907,0.026 0,70.0533 13.1319,0 0,10.865 -13.1319,0 -0.2526,15.399 7.1974,0 0,9.3439 z m 8.5863,-80.04 -29.4929,44.4321 29.4929,0 z" />
        <path d="m 4273.1571,-1766.0936 0,9.3439 -8.5863,0 0,15.399 42.9315,0 0,10.865 -46.4525,70.0793 -7.5907,-0.026 0,-70.0533 -13.1319,0 0,-10.865 13.1319,0 0.2526,-15.399 -7.1974,0 0,-9.3439 z m -8.5863,80.04 29.4929,-44.4321 -29.4929,0 z" style="fill:var(--color-card-suit-red, #d40000);fill-opacity:1" />
      </g>
    </g>
  </g>
</symbol><use href="#icon"></use></svg>