<svg xmlns="http://www.w3.org/2000/svg" width="221.22835" height="309.81104">
  <symbol viewBox="0 0 221.22835 309.81104" id="icon">
    <rect x="12.0881" y="11.5834" width="197.05205" height="286.64417" ry="0"
      style="fill:none;stroke:var(--color-card-back-pattern, #131f67);stroke-width:4.95238304;stroke-linecap:round;stroke-linejoin:miter;stroke-miterlimit:4;stroke-dasharray:none;stroke-opacity:1" />
    <rect x="16.4758" y="15.4526" width="188.27672" height="278.90585"
      style="fill:none;stroke:var(--color-card-back-pattern, #131f67);stroke-width:1;stroke-linecap:round;stroke-linejoin:miter;stroke-miterlimit:4;stroke-dasharray:none;stroke-opacity:1" />
    <svg x="16.4758" y="15.4526" width="188.27672" height="278.90585"
      viewBox="16.4758 15.4526 188.27672 278.90585" overflow="hidden">
      <path style="fill:var(--color-card-back-pattern, #131f67);fill-opacity:1;stroke:none"
        d="M15.0,23.5 L12.5,25.2 L9.7,24.1 L10.5,26.9 L8.6,29.2 L11.6,29.4 L13.2,31.9 L14.2,29.1 L17.1,28.3 L14.8,26.5Z M12.5,10.3 L13.8,12.9 L16.8,13.4 L14.6,15.5 L15.1,18.4 L12.5,17.0 L9.8,18.4 L10.4,15.5 L8.2,13.4 L11.2,12.9Z M23.4,21.2 L20.7,19.9 L20.3,16.9 L18.2,19.1 L15.3,18.6 L16.7,21.2 L15.3,23.8 L18.2,23.3 L20.3,25.5 L20.7,22.5Z M26.8,11.7 L24.4,13.3 L21.6,12.2 L22.4,15.1 L20.5,17.4 L23.5,17.5 L25.1,20.0 L26.1,17.2 L29.0,16.5 L26.6,14.6Z M15.2,47.5 L12.7,49.1 L10.0,48.0 L10.8,50.9 L8.9,53.2 L11.9,53.3 L13.4,55.8 L14.5,53.0 L17.4,52.3 L15.0,50.5Z M12.7,34.2 L14.0,36.9 L17.0,37.3 L14.9,39.4 L15.4,42.4 L12.7,41.0 L10.1,42.4 L10.6,39.4 L8.5,37.3 L11.4,36.9Z M22.3,30.8 L20.6,33.3 L21.7,36.1 L18.9,35.3 L16.6,37.2 L16.4,34.2 L13.9,32.6 L16.7,31.6 L17.5,28.7 L19.3,31.0Z M23.7,45.2 L21.0,43.9 L20.6,40.9 L18.5,43.0 L15.5,42.5 L16.9,45.2 L15.5,47.8 L18.5,47.3 L20.6,49.4 L21.0,46.5Z M27.1,35.6 L24.6,37.3 L21.8,36.2 L22.6,39.0 L20.7,41.3 L23.7,41.5 L25.3,44.0 L26.3,41.2 L29.2,40.4 L26.9,38.6Z M24.6,22.4 L25.9,25.1 L28.9,25.5 L26.7,27.6 L27.2,30.5 L24.6,29.1 L22.0,30.5 L22.5,27.6 L20.3,25.5 L23.3,25.1Z M34.1,19.0 L32.5,21.4 L33.6,24.2 L30.7,23.4 L28.4,25.3 L28.3,22.3 L25.8,20.7 L28.6,19.7 L29.3,16.8 L31.2,19.2Z M35.5,33.3 L32.9,32.0 L32.4,29.0 L30.3,31.2 L27.4,30.7 L28.8,33.3 L27.4,36.0 L30.3,35.4 L32.4,37.6 L32.9,34.6Z M38.9,23.8 L36.5,25.4 L33.7,24.3 L34.5,27.2 L32.6,29.5 L35.6,29.6 L37.2,32.1 L38.2,29.3 L41.1,28.6 L38.7,26.7Z M36.4,10.5 L37.8,13.2 L40.7,13.6 L38.6,15.7 L39.1,18.6 L36.4,17.3 L33.8,18.6 L34.3,15.7 L32.2,13.6 L35.1,13.2Z M47.4,21.5 L44.7,20.1 L44.3,17.2 L42.2,19.3 L39.3,18.8 L40.6,21.5 L39.3,24.1 L42.2,23.6 L44.3,25.7 L44.7,22.8Z M50.8,11.9 L48.3,13.6 L45.5,12.5 L46.4,15.3 L44.4,17.6 L47.4,17.7 L49.0,20.3 L50.1,17.5 L52.9,16.7 L50.6,14.9Z M15.5,71.4 L13.0,73.1 L10.2,72.0 L11.0,74.9 L9.1,77.2 L12.1,77.3 L13.7,79.8 L14.7,77.0 L17.6,76.3 L15.3,74.4Z M13.0,58.2 L14.3,60.9 L17.2,61.3 L15.1,63.4 L15.6,66.3 L13.0,64.9 L10.3,66.3 L10.8,63.4 L8.7,61.3 L11.7,60.9Z M22.5,54.8 L20.9,57.3 L22.0,60.0 L19.1,59.2 L16.8,61.1 L16.7,58.2 L14.2,56.6 L17.0,55.5 L17.7,52.6 L19.5,55.0Z M23.9,69.1 L21.2,67.8 L20.8,64.9 L18.7,67.0 L15.8,66.5 L17.2,69.1 L15.8,71.8 L18.7,71.3 L20.8,73.4 L21.2,70.5Z M27.3,59.6 L24.8,61.2 L22.1,60.1 L22.9,63.0 L21.0,65.3 L24.0,65.4 L25.5,67.9 L26.6,65.1 L29.5,64.4 L27.1,62.6Z M24.8,46.3 L26.2,49.0 L29.1,49.4 L27.0,51.5 L27.5,54.5 L24.8,53.1 L22.2,54.5 L22.7,51.5 L20.6,49.4 L23.5,49.0Z M34.4,42.9 L32.7,45.4 L33.8,48.2 L31.0,47.4 L28.7,49.3 L28.5,46.3 L26.0,44.7 L28.8,43.7 L29.6,40.8 L31.4,43.1Z M35.8,57.3 L33.1,56.0 L32.7,53.0 L30.6,55.1 L27.6,54.6 L29.0,57.3 L27.6,59.9 L30.6,59.4 L32.7,61.5 L33.1,58.6Z M39.2,47.7 L36.7,49.4 L33.9,48.3 L34.7,51.2 L32.8,53.4 L35.8,53.6 L37.4,56.1 L38.4,53.3 L41.3,52.6 L39.0,50.7Z M36.7,34.5 L38.0,37.2 L41.0,37.6 L38.8,39.7 L39.3,42.6 L36.7,41.2 L34.1,42.6 L34.6,39.7 L32.4,37.6 L35.4,37.2Z M46.2,31.1 L44.6,33.5 L45.7,36.3 L42.8,35.5 L40.5,37.4 L40.4,34.4 L37.9,32.8 L40.7,31.8 L41.4,28.9 L43.3,31.3Z M47.6,45.4 L45.0,44.1 L44.5,41.1 L42.4,43.3 L39.5,42.8 L40.9,45.4 L39.5,48.1 L42.4,47.6 L44.5,49.7 L45.0,46.7Z M51.0,35.9 L48.6,37.5 L45.8,36.4 L46.6,39.3 L44.7,41.6 L47.7,41.7 L49.3,44.2 L50.3,41.4 L53.2,40.7 L50.8,38.8Z M48.6,22.6 L49.9,25.3 L52.8,25.7 L50.7,27.8 L51.2,30.7 L48.6,29.4 L45.9,30.7 L46.4,27.8 L44.3,25.7 L47.2,25.3Z M58.1,19.2 L56.4,21.7 L57.5,24.5 L54.7,23.7 L52.4,25.6 L52.3,22.6 L49.7,21.0 L52.5,20.0 L53.3,17.1 L55.1,19.4Z M59.5,33.6 L56.8,32.2 L56.4,29.3 L54.3,31.4 L51.4,30.9 L52.8,33.6 L51.4,36.2 L54.3,35.7 L56.4,37.8 L56.8,34.9Z M62.9,24.0 L60.4,25.7 L57.6,24.6 L58.5,27.4 L56.6,29.7 L59.5,29.8 L61.1,32.4 L62.2,29.6 L65.0,28.8 L62.7,27.0Z M60.4,10.8 L61.7,13.4 L64.7,13.9 L62.5,15.9 L63.1,18.9 L60.4,17.5 L57.8,18.9 L58.3,15.9 L56.1,13.9 L59.1,13.4Z M71.3,21.7 L68.7,20.4 L68.2,17.4 L66.2,19.6 L63.2,19.1 L64.6,21.7 L63.2,24.3 L66.2,23.8 L68.2,26.0 L68.7,23.0Z M74.8,12.2 L72.3,13.8 L69.5,12.7 L70.3,15.6 L68.4,17.9 L71.4,18.0 L73.0,20.5 L74.0,17.7 L76.9,17.0 L74.6,15.1Z M15.7,95.4 L13.2,97.1 L10.5,96.0 L11.3,98.8 L9.4,101.1 L12.3,101.2 L13.9,103.8 L15.0,101.0 L17.9,100.2 L15.5,98.4Z M13.2,82.2 L14.5,84.8 L17.5,85.3 L15.4,87.3 L15.9,90.3 L13.2,88.9 L10.6,90.3 L11.1,87.3 L8.9,85.3 L11.9,84.8Z M22.8,78.7 L21.1,81.2 L22.2,84.0 L19.3,83.2 L17.0,85.1 L16.9,82.1 L14.4,80.5 L17.2,79.5 L17.9,76.6 L19.8,78.9Z M24.2,93.1 L21.5,91.8 L21.0,88.8 L19.0,91.0 L16.0,90.5 L17.4,93.1 L16.0,95.7 L19.0,95.2 L21.0,97.4 L21.5,94.4Z M27.6,83.6 L25.1,85.2 L22.3,84.1 L23.1,87.0 L21.2,89.3 L24.2,89.4 L25.8,91.9 L26.8,89.1 L29.7,88.4 L27.4,86.5Z M25.1,70.3 L26.4,73.0 L29.3,73.4 L27.2,75.5 L27.7,78.4 L25.1,77.0 L22.4,78.4 L22.9,75.5 L20.8,73.4 L23.8,73.0Z M34.6,66.9 L33.0,69.4 L34.1,72.1 L31.2,71.3 L28.9,73.2 L28.8,70.3 L26.3,68.7 L29.1,67.6 L29.8,64.7 L31.6,67.1Z M36.0,81.2 L33.3,79.9 L32.9,77.0 L30.8,79.1 L27.9,78.6 L29.3,81.2 L27.9,83.9 L30.8,83.4 L32.9,85.5 L33.3,82.6Z M39.4,71.7 L36.9,73.3 L34.2,72.2 L35.0,75.1 L33.1,77.4 L36.1,77.5 L37.6,80.0 L38.7,77.2 L41.6,76.5 L39.2,74.7Z M36.9,58.4 L38.3,61.1 L41.2,61.5 L39.1,63.6 L39.6,66.6 L36.9,65.2 L34.3,66.6 L34.8,63.6 L32.7,61.5 L35.6,61.1Z M46.5,55.0 L44.8,57.5 L45.9,60.3 L43.1,59.5 L40.8,61.4 L40.6,58.4 L38.1,56.8 L40.9,55.8 L41.7,52.9 L43.5,55.2Z M47.9,69.4 L45.2,68.1 L44.8,65.1 L42.7,67.2 L39.7,66.7 L41.1,69.4 L39.7,72.0 L42.7,71.5 L44.8,73.6 L45.2,70.7Z M51.3,59.8 L48.8,61.5 L46.0,60.4 L46.8,63.3 L44.9,65.5 L47.9,65.7 L49.5,68.2 L50.5,65.4 L53.4,64.7 L51.1,62.8Z M48.8,46.6 L50.1,49.3 L53.1,49.7 L50.9,51.8 L51.4,54.7 L48.8,53.3 L46.2,54.7 L46.7,51.8 L44.5,49.7 L47.5,49.3Z M58.3,43.2 L56.7,45.7 L57.8,48.4 L54.9,47.6 L52.6,49.5 L52.5,46.5 L50.0,44.9 L52.8,43.9 L53.5,41.0 L55.4,43.4Z M59.7,57.5 L57.1,56.2 L56.6,53.2 L54.5,55.4 L51.6,54.9 L53.0,57.5 L51.6,60.2 L54.5,59.7 L56.6,61.8 L57.1,58.8Z M63.1,48.0 L60.7,49.6 L57.9,48.5 L58.7,51.4 L56.8,53.7 L59.8,53.8 L61.4,56.3 L62.4,53.5 L65.3,52.8 L62.9,50.9Z M60.7,34.7 L62.0,37.4 L64.9,37.8 L62.8,39.9 L63.3,42.8 L60.7,41.5 L58.0,42.8 L58.5,39.9 L56.4,37.8 L59.3,37.4Z M70.2,31.3 L68.5,33.8 L69.6,36.6 L66.8,35.8 L64.5,37.7 L64.4,34.7 L61.8,33.1 L64.6,32.1 L65.4,29.2 L67.2,31.5Z M71.6,45.7 L68.9,44.3 L68.5,41.4 L66.4,43.5 L63.5,43.0 L64.9,45.7 L63.5,48.3 L66.4,47.8 L68.5,49.9 L68.9,47.0Z M75.0,36.1 L72.5,37.8 L69.8,36.7 L70.6,39.5 L68.7,41.8 L71.6,41.9 L73.2,44.5 L74.3,41.7 L77.1,40.9 L74.8,39.1Z M72.5,22.9 L73.8,25.5 L76.8,26.0 L74.6,28.0 L75.2,31.0 L72.5,29.6 L69.9,31.0 L70.4,28.0 L68.2,26.0 L71.2,25.5Z M82.1,19.5 L80.4,21.9 L81.5,24.7 L78.6,23.9 L76.3,25.8 L76.2,22.8 L73.7,21.2 L76.5,20.2 L77.2,17.3 L79.1,19.6Z M83.4,33.8 L80.8,32.5 L80.3,29.5 L78.3,31.7 L75.3,31.2 L76.7,33.8 L75.3,36.4 L78.3,35.9 L80.3,38.1 L80.8,35.1Z M86.9,24.3 L84.4,25.9 L81.6,24.8 L82.4,27.7 L80.5,30.0 L83.5,30.1 L85.1,32.6 L86.1,29.8 L89.0,29.1 L86.7,27.2Z M84.4,11.0 L85.7,13.7 L88.6,14.1 L86.5,16.2 L87.0,19.1 L84.4,17.7 L81.7,19.1 L82.2,16.2 L80.1,14.1 L83.1,13.7Z M95.3,21.9 L92.6,20.6 L92.2,17.7 L90.1,19.8 L87.2,19.3 L88.6,21.9 L87.2,24.6 L90.1,24.1 L92.2,26.2 L92.6,23.3Z M98.7,12.4 L96.2,14.1 L93.5,12.9 L94.3,15.8 L92.4,18.1 L95.4,18.2 L96.9,20.7 L98.0,18.0 L100.9,17.2 L98.5,15.4Z M15.9,119.4 L13.5,121.0 L10.7,119.9 L11.5,122.8 L9.6,125.1 L12.6,125.2 L14.2,127.7 L15.2,124.9 L18.1,124.2 L15.8,122.3Z M13.5,106.1 L14.8,108.8 L17.7,109.2 L15.6,111.3 L16.1,114.2 L13.5,112.9 L10.8,114.2 L11.3,111.3 L9.2,109.2 L12.1,108.8Z M23.0,102.7 L21.3,105.2 L22.5,108.0 L19.6,107.2 L17.3,109.1 L17.2,106.1 L14.7,104.5 L17.4,103.5 L18.2,100.6 L20.0,102.9Z M24.4,117.1 L21.7,115.7 L21.3,112.8 L19.2,114.9 L16.3,114.4 L17.7,117.1 L16.3,119.7 L19.2,119.2 L21.3,121.3 L21.7,118.4Z M27.8,107.5 L25.3,109.2 L22.6,108.1 L23.4,110.9 L21.5,113.2 L24.4,113.3 L26.0,115.9 L27.1,113.1 L30.0,112.3 L27.6,110.5Z M25.3,94.3 L26.6,96.9 L29.6,97.4 L27.5,99.4 L28.0,102.4 L25.3,101.0 L22.7,102.4 L23.2,99.4 L21.0,97.4 L24.0,96.9Z M34.9,90.9 L33.2,93.3 L34.3,96.1 L31.4,95.3 L29.2,97.2 L29.0,94.2 L26.5,92.6 L29.3,91.6 L30.0,88.7 L31.9,91.0Z M36.3,105.2 L33.6,103.9 L33.2,100.9 L31.1,103.1 L28.1,102.6 L29.5,105.2 L28.1,107.8 L31.1,107.3 L33.2,109.5 L33.6,106.5Z M39.7,95.7 L37.2,97.3 L34.4,96.2 L35.2,99.1 L33.3,101.4 L36.3,101.5 L37.9,104.0 L38.9,101.2 L41.8,100.5 L39.5,98.6Z M37.2,82.4 L38.5,85.1 L41.4,85.5 L39.3,87.6 L39.8,90.5 L37.2,89.1 L34.5,90.5 L35.0,87.6 L32.9,85.5 L35.9,85.1Z M46.7,79.0 L45.1,81.5 L46.2,84.2 L43.3,83.4 L41.0,85.3 L40.9,82.4 L38.4,80.8 L41.2,79.7 L41.9,76.8 L43.7,79.2Z M48.1,93.3 L45.4,92.0 L45.0,89.1 L42.9,91.2 L40.0,90.7 L41.4,93.3 L40.0,96.0 L42.9,95.5 L45.0,97.6 L45.4,94.7Z M51.5,83.8 L49.0,85.5 L46.3,84.3 L47.1,87.2 L45.2,89.5 L48.2,89.6 L49.8,92.1 L50.8,89.4 L53.7,88.6 L51.3,86.8Z M49.0,70.5 L50.4,73.2 L53.3,73.6 L51.2,75.7 L51.7,78.7 L49.0,77.3 L46.4,78.7 L46.9,75.7 L44.8,73.6 L47.7,73.2Z M58.6,67.1 L56.9,69.6 L58.0,72.4 L55.2,71.6 L52.9,73.5 L52.8,70.5 L50.2,68.9 L53.0,67.9 L53.8,65.0 L55.6,67.3Z M60.0,81.5 L57.3,80.2 L56.9,77.2 L54.8,79.3 L51.9,78.8 L53.2,81.5 L51.9,84.1 L54.8,83.6 L56.9,85.8 L57.3,82.8Z M63.4,71.9 L60.9,73.6 L58.1,72.5 L58.9,75.4 L57.0,77.6 L60.0,77.8 L61.6,80.3 L62.6,77.5 L65.5,76.8 L63.2,74.9Z M60.9,58.7 L62.2,61.4 L65.2,61.8 L63.0,63.9 L63.5,66.8 L60.9,65.4 L58.3,66.8 L58.8,63.9 L56.6,61.8 L59.6,61.4Z M70.4,55.3 L68.8,57.8 L69.9,60.5 L67.0,59.7 L64.7,61.6 L64.6,58.6 L62.1,57.0 L64.9,56.0 L65.6,53.1 L67.5,55.5Z M71.8,69.6 L69.2,68.3 L68.7,65.4 L66.6,67.5 L63.7,67.0 L65.1,69.6 L63.7,72.3 L66.6,71.8 L68.7,73.9 L69.2,70.9Z M75.2,60.1 L72.8,61.7 L70.0,60.6 L70.8,63.5 L68.9,65.8 L71.9,65.9 L73.5,68.4 L74.5,65.6 L77.4,64.9 L75.1,63.1Z M72.8,46.8 L74.1,49.5 L77.0,49.9 L74.9,52.0 L75.4,54.9 L72.8,53.6 L70.1,54.9 L70.6,52.0 L68.5,49.9 L71.4,49.5Z M82.3,43.4 L80.6,45.9 L81.8,48.7 L78.9,47.9 L76.6,49.8 L76.5,46.8 L73.9,45.2 L76.7,44.2 L77.5,41.3 L79.3,43.6Z M83.7,57.8 L81.0,56.4 L80.6,53.5 L78.5,55.6 L75.6,55.1 L77.0,57.8 L75.6,60.4 L78.5,59.9 L80.6,62.0 L81.0,59.1Z M87.1,48.2 L84.6,49.9 L81.9,48.8 L82.7,51.6 L80.8,53.9 L83.7,54.0 L85.3,56.6 L86.4,53.8 L89.3,53.0 L86.9,51.2Z M84.6,35.0 L85.9,37.6 L88.9,38.1 L86.8,40.2 L87.3,43.1 L84.6,41.7 L82.0,43.1 L82.5,40.2 L80.3,38.1 L83.3,37.6Z M94.2,31.6 L92.5,34.0 L93.6,36.8 L90.7,36.0 L88.4,37.9 L88.3,34.9 L85.8,33.3 L88.6,32.3 L89.3,29.4 L91.2,31.7Z M95.6,45.9 L92.9,44.6 L92.4,41.6 L90.4,43.8 L87.4,43.3 L88.8,45.9 L87.4,48.5 L90.4,48.0 L92.4,50.2 L92.9,47.2Z M99.0,36.4 L96.5,38.0 L93.7,36.9 L94.5,39.8 L92.6,42.1 L95.6,42.2 L97.2,44.7 L98.2,41.9 L101.1,41.2 L98.8,39.3Z M96.5,23.1 L97.8,25.8 L100.7,26.2 L98.6,28.3 L99.1,31.2 L96.5,29.8 L93.8,31.2 L94.3,28.3 L92.2,26.2 L95.2,25.8Z M106.0,19.7 L104.4,22.2 L105.5,24.9 L102.6,24.1 L100.3,26.0 L100.2,23.1 L97.7,21.5 L100.5,20.4 L101.2,17.5 L103.0,19.9Z M107.4,34.0 L104.7,32.7 L104.3,29.8 L102.2,31.9 L99.3,31.4 L100.7,34.0 L99.3,36.7 L102.2,36.2 L104.3,38.3 L104.7,35.4Z M110.8,24.5 L108.3,26.2 L105.6,25.0 L106.4,27.9 L104.5,30.2 L107.5,30.3 L109.0,32.9 L110.1,30.1 L113.0,29.3 L110.6,27.5Z M108.3,11.2 L109.7,13.9 L112.6,14.4 L110.5,16.4 L111.0,19.4 L108.3,18.0 L105.7,19.4 L106.2,16.4 L104.1,14.4 L107.0,13.9Z M119.3,22.2 L116.6,20.9 L116.2,17.9 L114.1,20.0 L111.1,19.5 L112.5,22.2 L111.1,24.8 L114.1,24.3 L116.2,26.5 L116.6,23.5Z M122.7,12.6 L120.2,14.3 L117.4,13.2 L118.2,16.1 L116.3,18.4 L119.3,18.5 L120.9,21.0 L121.9,18.2 L124.8,17.5 L122.5,15.6Z M16.2,143.3 L13.7,145.0 L10.9,143.9 L11.7,146.8 L9.8,149.0 L12.8,149.2 L14.4,151.7 L15.4,148.9 L18.3,148.2 L16.0,146.3Z M13.7,130.1 L15.0,132.8 L18.0,133.2 L15.8,135.3 L16.3,138.2 L13.7,136.8 L11.1,138.2 L11.6,135.3 L9.4,133.2 L12.4,132.8Z M23.2,126.7 L21.6,129.2 L22.7,131.9 L19.8,131.1 L17.5,133.0 L17.4,130.0 L14.9,128.4 L17.7,127.4 L18.4,124.5 L20.3,126.9Z M24.6,141.0 L22.0,139.7 L21.5,136.8 L19.5,138.9 L16.5,138.4 L17.9,141.0 L16.5,143.7 L19.5,143.2 L21.5,145.3 L22.0,142.3Z M28.1,131.5 L25.6,133.1 L22.8,132.0 L23.6,134.9 L21.7,137.2 L24.7,137.3 L26.3,139.8 L27.3,137.0 L30.2,136.3 L27.9,134.5Z M25.6,118.2 L26.9,120.9 L29.8,121.3 L27.7,123.4 L28.2,126.3 L25.6,125.0 L22.9,126.3 L23.4,123.4 L21.3,121.3 L24.2,120.9Z M35.1,114.8 L33.5,117.3 L34.6,120.1 L31.7,119.3 L29.4,121.2 L29.3,118.2 L26.8,116.6 L29.6,115.6 L30.3,112.7 L32.1,115.0Z M36.5,129.2 L33.8,127.8 L33.4,124.9 L31.3,127.0 L28.4,126.5 L29.8,129.2 L28.4,131.8 L31.3,131.3 L33.4,133.4 L33.8,130.5Z M39.9,119.6 L37.4,121.3 L34.7,120.2 L35.5,123.0 L33.6,125.3 L36.5,125.4 L38.1,128.0 L39.2,125.2 L42.1,124.4 L39.7,122.6Z M37.4,106.4 L38.7,109.0 L41.7,109.5 L39.6,111.6 L40.1,114.5 L37.4,113.1 L34.8,114.5 L35.3,111.6 L33.2,109.5 L36.1,109.0Z M47.0,103.0 L45.3,105.4 L46.4,108.2 L43.5,107.4 L41.3,109.3 L41.1,106.3 L38.6,104.7 L41.4,103.7 L42.1,100.8 L44.0,103.1Z M48.4,117.3 L45.7,116.0 L45.3,113.0 L43.2,115.2 L40.2,114.7 L41.6,117.3 L40.2,119.9 L43.2,119.4 L45.3,121.6 L45.7,118.6Z M51.8,107.8 L49.3,109.4 L46.5,108.3 L47.3,111.2 L45.4,113.5 L48.4,113.6 L50.0,116.1 L51.0,113.3 L53.9,112.6 L51.6,110.7Z M49.3,94.5 L50.6,97.2 L53.6,97.6 L51.4,99.7 L51.9,102.6 L49.3,101.2 L46.6,102.6 L47.1,99.7 L45.0,97.6 L48.0,97.2Z M58.8,91.1 L57.2,93.6 L58.3,96.3 L55.4,95.5 L53.1,97.4 L53.0,94.5 L50.5,92.9 L53.3,91.8 L54.0,88.9 L55.9,91.3Z M60.2,105.4 L57.5,104.1 L57.1,101.2 L55.0,103.3 L52.1,102.8 L53.5,105.4 L52.1,108.1 L55.0,107.6 L57.1,109.7 L57.5,106.8Z M63.6,95.9 L61.1,97.6 L58.4,96.4 L59.2,99.3 L57.3,101.6 L60.3,101.7 L61.9,104.3 L62.9,101.5 L65.8,100.7 L63.4,98.9Z M61.1,82.6 L62.5,85.3 L65.4,85.8 L63.3,87.8 L63.8,90.8 L61.1,89.4 L58.5,90.8 L59.0,87.8 L56.9,85.8 L59.8,85.3Z M70.7,79.2 L69.0,81.7 L70.1,84.5 L67.3,83.7 L65.0,85.6 L64.9,82.6 L62.3,81.0 L65.1,80.0 L65.9,77.1 L67.7,79.4Z M72.1,93.6 L69.4,92.3 L69.0,89.3 L66.9,91.4 L64.0,90.9 L65.3,93.6 L64.0,96.2 L66.9,95.7 L69.0,97.9 L69.4,94.9Z M75.5,84.0 L73.0,85.7 L70.2,84.6 L71.0,87.5 L69.1,89.8 L72.1,89.9 L73.7,92.4 L74.7,89.6 L77.6,88.9 L75.3,87.0Z M73.0,70.8 L74.3,73.5 L77.3,73.9 L75.1,76.0 L75.6,78.9 L73.0,77.5 L70.4,78.9 L70.9,76.0 L68.7,73.9 L71.7,73.5Z M82.5,67.4 L80.9,69.9 L82.0,72.6 L79.1,71.8 L76.8,73.7 L76.7,70.7 L74.2,69.2 L77.0,68.1 L77.7,65.2 L79.6,67.6Z M83.9,81.7 L81.3,80.4 L80.8,77.5 L78.8,79.6 L75.8,79.1 L77.2,81.7 L75.8,84.4 L78.8,83.9 L80.8,86.0 L81.3,83.0Z M87.3,72.2 L84.9,73.8 L82.1,72.7 L82.9,75.6 L81.0,77.9 L84.0,78.0 L85.6,80.5 L86.6,77.7 L89.5,77.0 L87.2,75.2Z M84.9,58.9 L86.2,61.6 L89.1,62.0 L87.0,64.1 L87.5,67.1 L84.9,65.7 L82.2,67.1 L82.7,64.1 L80.6,62.0 L83.5,61.6Z M94.4,55.5 L92.7,58.0 L93.9,60.8 L91.0,60.0 L88.7,61.9 L88.6,58.9 L86.1,57.3 L88.8,56.3 L89.6,53.4 L91.4,55.7Z M95.8,69.9 L93.1,68.5 L92.7,65.6 L90.6,67.7 L87.7,67.2 L89.1,69.9 L87.7,72.5 L90.6,72.0 L92.7,74.1 L93.1,71.2Z M99.2,60.3 L96.7,62.0 L94.0,60.9 L94.8,63.7 L92.9,66.0 L95.8,66.2 L97.4,68.7 L98.5,65.9 L101.4,65.1 L99.0,63.3Z M96.7,47.1 L98.0,49.7 L101.0,50.2 L98.9,52.3 L99.4,55.2 L96.7,53.8 L94.1,55.2 L94.6,52.3 L92.4,50.2 L95.4,49.7Z M106.3,43.7 L104.6,46.1 L105.7,48.9 L102.8,48.1 L100.6,50.0 L100.4,47.0 L97.9,45.4 L100.7,44.4 L101.4,41.5 L103.3,43.9Z M107.7,58.0 L105.0,56.7 L104.6,53.7 L102.5,55.9 L99.5,55.4 L100.9,58.0 L99.5,60.6 L102.5,60.1 L104.6,62.3 L105.0,59.3Z M111.1,48.5 L108.6,50.1 L105.8,49.0 L106.6,51.9 L104.7,54.2 L107.7,54.3 L109.3,56.8 L110.3,54.0 L113.2,53.3 L110.9,51.4Z M108.6,35.2 L109.9,37.9 L112.8,38.3 L110.7,40.4 L111.2,43.3 L108.6,41.9 L105.9,43.3 L106.4,40.4 L104.3,38.3 L107.3,37.9Z M118.1,31.8 L116.5,34.3 L117.6,37.0 L114.7,36.2 L112.4,38.1 L112.3,35.2 L109.8,33.6 L112.6,32.5 L113.3,29.7 L115.1,32.0Z M119.5,46.1 L116.8,44.8 L116.4,41.9 L114.3,44.0 L111.4,43.5 L112.8,46.1 L111.4,48.8 L114.3,48.3 L116.4,50.4 L116.8,47.5Z M122.9,36.6 L120.4,38.3 L117.7,37.2 L118.5,40.0 L116.6,42.3 L119.6,42.4 L121.2,45.0 L122.2,42.2 L125.1,41.4 L122.7,39.6Z M120.4,23.4 L121.8,26.0 L124.7,26.5 L122.6,28.5 L123.1,31.5 L120.4,30.1 L117.8,31.5 L118.3,28.5 L116.2,26.5 L119.1,26.0Z M130.0,19.9 L128.3,22.4 L129.4,25.2 L126.6,24.4 L124.3,26.3 L124.2,23.3 L121.6,21.7 L124.4,20.7 L125.2,17.8 L127.0,20.1Z M131.4,34.3 L128.7,33.0 L128.3,30.0 L126.2,32.2 L123.3,31.6 L124.6,34.3 L123.3,36.9 L126.2,36.4 L128.3,38.6 L128.7,35.6Z M134.8,24.7 L132.3,26.4 L129.5,25.3 L130.3,28.2 L128.4,30.5 L131.4,30.6 L133.0,33.1 L134.0,30.3 L136.9,29.6 L134.6,27.7Z M132.3,11.5 L133.6,14.2 L136.6,14.6 L134.4,16.7 L134.9,19.6 L132.3,18.2 L129.7,19.6 L130.2,16.7 L128.0,14.6 L131.0,14.2Z M143.2,22.4 L140.6,21.1 L140.1,18.2 L138.0,20.3 L135.1,19.8 L136.5,22.4 L135.1,25.1 L138.0,24.6 L140.1,26.7 L140.6,23.7Z M146.6,12.9 L144.2,14.5 L141.4,13.4 L142.2,16.3 L140.3,18.6 L143.3,18.7 L144.9,21.2 L145.9,18.4 L148.8,17.7 L146.5,15.9Z M16.4,167.3 L14.0,169.0 L11.2,167.8 L12.0,170.7 L10.1,173.0 L13.1,173.1 L14.7,175.7 L15.7,172.9 L18.6,172.1 L16.2,170.3Z M13.9,154.0 L15.3,156.7 L18.2,157.2 L16.1,159.2 L16.6,162.2 L13.9,160.8 L11.3,162.2 L11.8,159.2 L9.7,157.2 L12.6,156.7Z M23.5,150.6 L21.8,153.1 L22.9,155.9 L20.1,155.1 L17.8,157.0 L17.7,154.0 L15.1,152.4 L17.9,151.4 L18.7,148.5 L20.5,150.8Z M24.9,165.0 L22.2,163.7 L21.8,160.7 L19.7,162.8 L16.8,162.3 L18.1,165.0 L16.8,167.6 L19.7,167.1 L21.8,169.3 L22.2,166.3Z M28.3,155.4 L25.8,157.1 L23.0,156.0 L23.9,158.9 L21.9,161.2 L24.9,161.3 L26.5,163.8 L27.6,161.0 L30.4,160.3 L28.1,158.4Z M25.8,142.2 L27.1,144.9 L30.1,145.3 L27.9,147.4 L28.4,150.3 L25.8,148.9 L23.2,150.3 L23.7,147.4 L21.5,145.3 L24.5,144.9Z M35.4,138.8 L33.7,141.3 L34.8,144.0 L31.9,143.2 L29.6,145.1 L29.5,142.1 L27.0,140.6 L29.8,139.5 L30.5,136.6 L32.4,139.0Z M36.7,153.1 L34.1,151.8 L33.6,148.9 L31.6,151.0 L28.6,150.5 L30.0,153.1 L28.6,155.8 L31.6,155.3 L33.6,157.4 L34.1,154.4Z M40.2,143.6 L37.7,145.2 L34.9,144.1 L35.7,147.0 L33.8,149.3 L36.8,149.4 L38.4,151.9 L39.4,149.1 L42.3,148.4 L40.0,146.6Z M37.7,130.3 L39.0,133.0 L41.9,133.4 L39.8,135.5 L40.3,138.5 L37.7,137.1 L35.0,138.5 L35.5,135.5 L33.4,133.4 L36.3,133.0Z M47.2,126.9 L45.6,129.4 L46.7,132.2 L43.8,131.4 L41.5,133.3 L41.4,130.3 L38.9,128.7 L41.7,127.7 L42.4,124.8 L44.2,127.1Z M48.6,141.3 L45.9,139.9 L45.5,137.0 L43.4,139.1 L40.5,138.6 L41.9,141.3 L40.5,143.9 L43.4,143.4 L45.5,145.5 L45.9,142.6Z M52.0,131.7 L49.5,133.4 L46.8,132.3 L47.6,135.1 L45.7,137.4 L48.6,137.6 L50.2,140.1 L51.3,137.3 L54.2,136.5 L51.8,134.7Z M49.5,118.5 L50.8,121.1 L53.8,121.6 L51.7,123.7 L52.2,126.6 L49.5,125.2 L46.9,126.6 L47.4,123.7 L45.3,121.6 L48.2,121.1Z M59.1,115.1 L57.4,117.5 L58.5,120.3 L55.6,119.5 L53.4,121.4 L53.2,118.4 L50.7,116.8 L53.5,115.8 L54.2,112.9 L56.1,115.3Z M60.5,129.4 L57.8,128.1 L57.4,125.1 L55.3,127.3 L52.3,126.8 L53.7,129.4 L52.3,132.0 L55.3,131.5 L57.4,133.7 L57.8,130.7Z M63.9,119.9 L61.4,121.5 L58.6,120.4 L59.4,123.3 L57.5,125.6 L60.5,125.7 L62.1,128.2 L63.1,125.4 L66.0,124.7 L63.7,122.8Z M61.4,106.6 L62.7,109.3 L65.7,109.7 L63.5,111.8 L64.0,114.7 L61.4,113.3 L58.7,114.7 L59.2,111.8 L57.1,109.7 L60.1,109.3Z M70.9,103.2 L69.3,105.7 L70.4,108.4 L67.5,107.6 L65.2,109.5 L65.1,106.6 L62.6,105.0 L65.4,103.9 L66.1,101.1 L68.0,103.4Z M72.3,117.5 L69.6,116.2 L69.2,113.3 L67.1,115.4 L64.2,114.9 L65.6,117.5 L64.2,120.2 L67.1,119.7 L69.2,121.8 L69.6,118.9Z M75.7,108.0 L73.3,109.7 L70.5,108.6 L71.3,111.4 L69.4,113.7 L72.4,113.8 L74.0,116.4 L75.0,113.6 L77.9,112.8 L75.5,111.0Z M73.2,94.8 L74.6,97.4 L77.5,97.9 L75.4,99.9 L75.9,102.9 L73.2,101.5 L70.6,102.9 L71.1,99.9 L69.0,97.9 L71.9,97.4Z M82.8,91.3 L81.1,93.8 L82.2,96.6 L79.4,95.8 L77.1,97.7 L77.0,94.7 L74.4,93.1 L77.2,92.1 L78.0,89.2 L79.8,91.5Z M84.2,105.7 L81.5,104.4 L81.1,101.4 L79.0,103.6 L76.1,103.0 L77.4,105.7 L76.1,108.3 L79.0,107.8 L81.1,110.0 L81.5,107.0Z M87.6,96.1 L85.1,97.8 L82.3,96.7 L83.1,99.6 L81.2,101.9 L84.2,102.0 L85.8,104.5 L86.8,101.7 L89.7,101.0 L87.4,99.1Z M85.1,82.9 L86.4,85.6 L89.4,86.0 L87.2,88.1 L87.7,91.0 L85.1,89.6 L82.5,91.0 L83.0,88.1 L80.8,86.0 L83.8,85.6Z M94.6,79.5 L93.0,82.0 L94.1,84.7 L91.2,83.9 L88.9,85.8 L88.8,82.8 L86.3,81.3 L89.1,80.2 L89.8,77.3 L91.7,79.7Z M96.0,93.8 L93.4,92.5 L92.9,89.6 L90.9,91.7 L87.9,91.2 L89.3,93.8 L87.9,96.5 L90.9,96.0 L92.9,98.1 L93.4,95.1Z M99.5,84.3 L97.0,85.9 L94.2,84.8 L95.0,87.7 L93.1,90.0 L96.1,90.1 L97.7,92.6 L98.7,89.8 L101.6,89.1 L99.3,87.3Z M97.0,71.0 L98.3,73.7 L101.2,74.1 L99.1,76.2 L99.6,79.2 L97.0,77.8 L94.3,79.2 L94.8,76.2 L92.7,74.1 L95.6,73.7Z M106.5,67.6 L104.9,70.1 L106.0,72.9 L103.1,72.1 L100.8,74.0 L100.7,71.0 L98.2,69.4 L101.0,68.4 L101.7,65.5 L103.5,67.8Z M107.9,82.0 L105.2,80.6 L104.8,77.7 L102.7,79.8 L99.8,79.3 L101.2,82.0 L99.8,84.6 L102.7,84.1 L104.8,86.2 L105.2,83.3Z M111.3,72.4 L108.8,74.1 L106.1,73.0 L106.9,75.8 L105.0,78.1 L107.9,78.3 L109.5,80.8 L110.6,78.0 L113.5,77.2 L111.1,75.4Z M108.8,59.2 L110.1,61.8 L113.1,62.3 L111.0,64.4 L111.5,67.3 L108.8,65.9 L106.2,67.3 L106.7,64.4 L104.6,62.3 L107.5,61.8Z M118.4,55.8 L116.7,58.2 L117.8,61.0 L114.9,60.2 L112.7,62.1 L112.5,59.1 L110.0,57.5 L112.8,56.5 L113.5,53.6 L115.4,56.0Z M119.8,70.1 L117.1,68.8 L116.7,65.8 L114.6,68.0 L111.6,67.5 L113.0,70.1 L111.6,72.7 L114.6,72.2 L116.7,74.4 L117.1,71.4Z M123.2,60.6 L120.7,62.2 L117.9,61.1 L118.7,64.0 L116.8,66.3 L119.8,66.4 L121.4,68.9 L122.4,66.1 L125.3,65.4 L123.0,63.5Z M120.7,47.3 L122.0,50.0 L125.0,50.4 L122.8,52.5 L123.3,55.4 L120.7,54.0 L118.0,55.4 L118.5,52.5 L116.4,50.4 L119.4,50.0Z M130.2,43.9 L128.6,46.4 L129.7,49.2 L126.8,48.3 L124.5,50.2 L124.4,47.3 L121.9,45.7 L124.7,44.6 L125.4,41.8 L127.3,44.1Z M131.6,58.2 L128.9,56.9 L128.5,54.0 L126.4,56.1 L123.5,55.6 L124.9,58.2 L123.5,60.9 L126.4,60.4 L128.5,62.5 L128.9,59.6Z M135.0,48.7 L132.5,50.4 L129.8,49.3 L130.6,52.1 L128.7,54.4 L131.7,54.5 L133.3,57.1 L134.3,54.3 L137.2,53.5 L134.8,51.7Z M132.5,35.5 L133.9,38.1 L136.8,38.6 L134.7,40.6 L135.2,43.6 L132.5,42.2 L129.9,43.6 L130.4,40.6 L128.3,38.6 L131.2,38.1Z M142.1,32.0 L140.4,34.5 L141.5,37.3 L138.7,36.5 L136.4,38.4 L136.3,35.4 L133.7,33.8 L136.5,32.8 L137.3,29.9 L139.1,32.2Z M143.5,46.4 L140.8,45.1 L140.4,42.1 L138.3,44.3 L135.4,43.7 L136.7,46.4 L135.4,49.0 L138.3,48.5 L140.4,50.7 L140.8,47.7Z M146.9,36.8 L144.4,38.5 L141.6,37.4 L142.4,40.3 L140.5,42.6 L143.5,42.7 L145.1,45.2 L146.1,42.4 L149.0,41.7 L146.7,39.8Z M144.4,23.6 L145.7,26.3 L148.7,26.7 L146.5,28.8 L147.0,31.7 L144.4,30.3 L141.8,31.7 L142.3,28.8 L140.1,26.7 L143.1,26.3Z M153.9,20.2 L152.3,22.7 L153.4,25.4 L150.5,24.6 L148.2,26.5 L148.1,23.5 L145.6,22.0 L148.4,20.9 L149.1,18.0 L151.0,20.4Z M155.3,34.5 L152.7,33.2 L152.2,30.3 L150.2,32.4 L147.2,31.9 L148.6,34.5 L147.2,37.2 L150.2,36.7 L152.2,38.8 L152.7,35.8Z M158.7,25.0 L156.3,26.6 L153.5,25.5 L154.3,28.4 L152.4,30.7 L155.4,30.8 L157.0,33.3 L158.0,30.5 L160.9,29.8 L158.6,28.0Z M156.3,11.7 L157.6,14.4 L160.5,14.8 L158.4,16.9 L158.9,19.9 L156.3,18.5 L153.6,19.9 L154.1,16.9 L152.0,14.8 L154.9,14.4Z M167.2,22.7 L164.5,21.4 L164.1,18.4 L162.0,20.5 L159.1,20.0 L160.5,22.7 L159.1,25.3 L162.0,24.8 L164.1,26.9 L164.5,24.0Z M170.6,13.1 L168.1,14.8 L165.4,13.7 L166.2,16.5 L164.3,18.8 L167.2,19.0 L168.8,21.5 L169.9,18.7 L172.8,17.9 L170.4,16.1Z M16.7,191.3 L14.2,192.9 L11.4,191.8 L12.2,194.7 L10.3,197.0 L13.3,197.1 L14.9,199.6 L15.9,196.8 L18.8,196.1 L16.5,194.2Z M14.2,178.0 L15.5,180.7 L18.5,181.1 L16.3,183.2 L16.8,186.1 L14.2,184.7 L11.6,186.1 L12.1,183.2 L9.9,181.1 L12.9,180.7Z M23.7,174.6 L22.1,177.1 L23.2,179.8 L20.3,179.0 L18.0,180.9 L17.9,178.0 L15.4,176.4 L18.2,175.3 L18.9,172.5 L20.8,174.8Z M25.1,188.9 L22.5,187.6 L22.0,184.7 L19.9,186.8 L17.0,186.3 L18.4,188.9 L17.0,191.6 L19.9,191.1 L22.0,193.2 L22.5,190.3Z M28.5,179.4 L26.1,181.1 L23.3,180.0 L24.1,182.8 L22.2,185.1 L25.2,185.2 L26.8,187.8 L27.8,185.0 L30.7,184.2 L28.3,182.4Z M26.0,166.2 L27.4,168.8 L30.3,169.3 L28.2,171.3 L28.7,174.3 L26.0,172.9 L23.4,174.3 L23.9,171.3 L21.8,169.3 L24.7,168.8Z M35.6,162.7 L33.9,165.2 L35.0,168.0 L32.2,167.2 L29.9,169.1 L29.8,166.1 L27.2,164.5 L30.0,163.5 L30.8,160.6 L32.6,162.9Z M37.0,177.1 L34.3,175.8 L33.9,172.8 L31.8,175.0 L28.9,174.4 L30.2,177.1 L28.9,179.7 L31.8,179.2 L33.9,181.4 L34.3,178.4Z M40.4,167.5 L37.9,169.2 L35.1,168.1 L36.0,171.0 L34.0,173.3 L37.0,173.4 L38.6,175.9 L39.7,173.1 L42.5,172.4 L40.2,170.5Z M37.9,154.3 L39.2,157.0 L42.2,157.4 L40.0,159.5 L40.5,162.4 L37.9,161.0 L35.3,162.4 L35.8,159.5 L33.6,157.4 L36.6,157.0Z M47.5,150.9 L45.8,153.4 L46.9,156.1 L44.0,155.3 L41.7,157.2 L41.6,154.2 L39.1,152.7 L41.9,151.6 L42.6,148.7 L44.5,151.1Z M48.8,165.2 L46.2,163.9 L45.7,161.0 L43.7,163.1 L40.7,162.6 L42.1,165.2 L40.7,167.9 L43.7,167.4 L45.7,169.5 L46.2,166.5Z M52.3,155.7 L49.8,157.3 L47.0,156.2 L47.8,159.1 L45.9,161.4 L48.9,161.5 L50.5,164.0 L51.5,161.2 L54.4,160.5 L52.1,158.7Z M49.8,142.4 L51.1,145.1 L54.0,145.5 L51.9,147.6 L52.4,150.6 L49.8,149.2 L47.1,150.6 L47.6,147.6 L45.5,145.5 L48.4,145.1Z M59.3,139.0 L57.7,141.5 L58.8,144.3 L55.9,143.5 L53.6,145.4 L53.5,142.4 L51.0,140.8 L53.8,139.8 L54.5,136.9 L56.3,139.2Z M60.7,153.4 L58.0,152.0 L57.6,149.1 L55.5,151.2 L52.6,150.7 L54.0,153.4 L52.6,156.0 L55.5,155.5 L57.6,157.6 L58.0,154.7Z M64.1,143.8 L61.6,145.5 L58.9,144.4 L59.7,147.2 L57.8,149.5 L60.7,149.7 L62.3,152.2 L63.4,149.4 L66.3,148.6 L63.9,146.8Z M61.6,130.6 L62.9,133.2 L65.9,133.7 L63.8,135.8 L64.3,138.7 L61.6,137.3 L59.0,138.7 L59.5,135.8 L57.4,133.7 L60.3,133.2Z M71.2,127.2 L69.5,129.6 L70.6,132.4 L67.8,131.6 L65.5,133.5 L65.3,130.5 L62.8,128.9 L65.6,127.9 L66.4,125.0 L68.2,127.4Z M72.6,141.5 L69.9,140.2 L69.5,137.2 L67.4,139.4 L64.4,138.9 L65.8,141.5 L64.4,144.1 L67.4,143.6 L69.5,145.8 L69.9,142.8Z M76.0,132.0 L73.5,133.6 L70.7,132.5 L71.5,135.4 L69.6,137.7 L72.6,137.8 L74.2,140.3 L75.2,137.5 L78.1,136.8 L75.8,134.9Z M73.5,118.7 L74.8,121.4 L77.8,121.8 L75.6,123.9 L76.1,126.8 L73.5,125.4 L70.8,126.8 L71.4,123.9 L69.2,121.8 L72.2,121.4Z M83.0,115.3 L81.4,117.8 L82.5,120.6 L79.6,119.7 L77.3,121.6 L77.2,118.7 L74.7,117.1 L77.5,116.0 L78.2,113.2 L80.1,115.5Z M84.4,129.6 L81.7,128.3 L81.3,125.4 L79.2,127.5 L76.3,127.0 L77.7,129.6 L76.3,132.3 L79.2,131.8 L81.3,133.9 L81.7,131.0Z M87.8,120.1 L85.4,121.8 L82.6,120.7 L83.4,123.5 L81.5,125.8 L84.5,125.9 L86.1,128.5 L87.1,125.7 L90.0,124.9 L87.6,123.1Z M85.3,106.9 L86.7,109.5 L89.6,110.0 L87.5,112.0 L88.0,115.0 L85.3,113.6 L82.7,115.0 L83.2,112.0 L81.1,110.0 L84.0,109.5Z M94.9,103.4 L93.2,105.9 L94.3,108.7 L91.5,107.9 L89.2,109.8 L89.1,106.8 L86.5,105.2 L89.3,104.2 L90.1,101.3 L91.9,103.6Z M96.3,117.8 L93.6,116.5 L93.2,113.5 L91.1,115.7 L88.2,115.1 L89.5,117.8 L88.2,120.4 L91.1,119.9 L93.2,122.1 L93.6,119.1Z M99.7,108.2 L97.2,109.9 L94.4,108.8 L95.3,111.7 L93.3,114.0 L96.3,114.1 L97.9,116.6 L99.0,113.8 L101.8,113.1 L99.5,111.2Z M97.2,95.0 L98.5,97.7 L101.5,98.1 L99.3,100.2 L99.8,103.1 L97.2,101.7 L94.6,103.1 L95.1,100.2 L92.9,98.1 L95.9,97.7Z M106.8,91.6 L105.1,94.1 L106.2,96.8 L103.3,96.0 L101.0,97.9 L100.9,94.9 L98.4,93.4 L101.2,92.3 L101.9,89.4 L103.8,91.8Z M108.1,105.9 L105.5,104.6 L105.0,101.7 L103.0,103.8 L100.0,103.3 L101.4,105.9 L100.0,108.6 L103.0,108.1 L105.0,110.2 L105.5,107.2Z M111.6,96.4 L109.1,98.0 L106.3,96.9 L107.1,99.8 L105.2,102.1 L108.2,102.2 L109.8,104.7 L110.8,101.9 L113.7,101.2 L111.4,99.4Z M109.1,83.1 L110.4,85.8 L113.3,86.2 L111.2,88.3 L111.7,91.3 L109.1,89.9 L106.4,91.3 L106.9,88.3 L104.8,86.2 L107.7,85.8Z M118.6,79.7 L117.0,82.2 L118.1,85.0 L115.2,84.2 L112.9,86.1 L112.8,83.1 L110.3,81.5 L113.1,80.5 L113.8,77.6 L115.6,79.9Z M120.0,94.1 L117.3,92.8 L116.9,89.8 L114.8,91.9 L111.9,91.4 L113.3,94.1 L111.9,96.7 L114.8,96.2 L116.9,98.3 L117.3,95.4Z M123.4,84.5 L120.9,86.2 L118.2,85.1 L119.0,87.9 L117.1,90.2 L120.0,90.4 L121.6,92.9 L122.7,90.1 L125.6,89.3 L123.2,87.5Z M120.9,71.3 L122.2,73.9 L125.2,74.4 L123.1,76.5 L123.6,79.4 L120.9,78.0 L118.3,79.4 L118.8,76.5 L116.7,74.4 L119.6,73.9Z M130.5,67.9 L128.8,70.3 L129.9,73.1 L127.0,72.3 L124.8,74.2 L124.6,71.2 L122.1,69.6 L124.9,68.6 L125.6,65.7 L127.5,68.1Z M131.9,82.2 L129.2,80.9 L128.8,77.9 L126.7,80.1 L123.7,79.6 L125.1,82.2 L123.7,84.8 L126.7,84.3 L128.8,86.5 L129.2,83.5Z M135.3,72.7 L132.8,74.3 L130.0,73.2 L130.8,76.1 L128.9,78.4 L131.9,78.5 L133.5,81.0 L134.5,78.2 L137.4,77.5 L135.1,75.6Z M132.8,59.4 L134.1,62.1 L137.1,62.5 L134.9,64.6 L135.4,67.5 L132.8,66.2 L130.1,67.5 L130.6,64.6 L128.5,62.5 L131.5,62.1Z M142.3,56.0 L140.7,58.5 L141.8,61.3 L138.9,60.4 L136.6,62.4 L136.5,59.4 L134.0,57.8 L136.8,56.7 L137.5,53.9 L139.4,56.2Z M143.7,70.4 L141.0,69.0 L140.6,66.1 L138.5,68.2 L135.6,67.7 L137.0,70.4 L135.6,73.0 L138.5,72.5 L140.6,74.6 L141.0,71.7Z M147.1,60.8 L144.7,62.5 L141.9,61.4 L142.7,64.2 L140.8,66.5 L143.8,66.6 L145.4,69.2 L146.4,66.4 L149.3,65.6 L146.9,63.8Z M144.6,47.6 L146.0,50.2 L148.9,50.7 L146.8,52.7 L147.3,55.7 L144.6,54.3 L142.0,55.7 L142.5,52.7 L140.4,50.7 L143.3,50.2Z M154.2,44.1 L152.5,46.6 L153.6,49.4 L150.8,48.6 L148.5,50.5 L148.4,47.5 L145.8,45.9 L148.6,44.9 L149.4,42.0 L151.2,44.3Z M155.6,58.5 L152.9,57.2 L152.5,54.2 L150.4,56.4 L147.5,55.9 L148.8,58.5 L147.5,61.1 L150.4,60.6 L152.5,62.8 L152.9,59.8Z M159.0,48.9 L156.5,50.6 L153.7,49.5 L154.5,52.4 L152.6,54.7 L155.6,54.8 L157.2,57.3 L158.2,54.5 L161.1,53.8 L158.8,51.9Z M156.5,35.7 L157.8,38.4 L160.8,38.8 L158.6,40.9 L159.1,43.8 L156.5,42.4 L153.9,43.8 L154.4,40.9 L152.2,38.8 L155.2,38.4Z M166.0,32.3 L164.4,34.8 L165.5,37.5 L162.6,36.7 L160.3,38.6 L160.2,35.7 L157.7,34.1 L160.5,33.0 L161.2,30.1 L163.1,32.5Z M167.4,46.6 L164.8,45.3 L164.3,42.4 L162.3,44.5 L159.3,44.0 L160.7,46.6 L159.3,49.3 L162.3,48.8 L164.3,50.9 L164.8,48.0Z M170.9,37.1 L168.4,38.7 L165.6,37.6 L166.4,40.5 L164.5,42.8 L167.5,42.9 L169.1,45.4 L170.1,42.6 L173.0,41.9 L170.7,40.1Z M168.4,23.8 L169.7,26.5 L172.6,26.9 L170.5,29.0 L171.0,32.0 L168.4,30.6 L165.7,32.0 L166.2,29.0 L164.1,26.9 L167.0,26.5Z M177.9,20.4 L176.3,22.9 L177.4,25.7 L174.5,24.9 L172.2,26.8 L172.1,23.8 L169.6,22.2 L172.4,21.2 L173.1,18.3 L174.9,20.6Z M179.3,34.8 L176.6,33.5 L176.2,30.5 L174.1,32.6 L171.2,32.1 L172.6,34.8 L171.2,37.4 L174.1,36.9 L176.2,39.0 L176.6,36.1Z M182.7,25.2 L180.2,26.9 L177.5,25.8 L178.3,28.6 L176.4,30.9 L179.3,31.1 L180.9,33.6 L182.0,30.8 L184.9,30.0 L182.5,28.2Z M180.2,12.0 L181.5,14.7 L184.5,15.1 L182.4,17.2 L182.9,20.1 L180.2,18.7 L177.6,20.1 L178.1,17.2 L176.0,15.1 L178.9,14.7Z M191.2,22.9 L188.5,21.6 L188.1,18.6 L186.0,20.8 L183.0,20.3 L184.4,22.9 L183.0,25.6 L186.0,25.0 L188.1,27.2 L188.5,24.2Z M194.6,13.4 L192.1,15.0 L189.3,13.9 L190.1,16.8 L188.2,19.1 L191.2,19.2 L192.8,21.7 L193.8,18.9 L196.7,18.2 L194.4,16.3Z M16.9,215.2 L14.4,216.9 L11.7,215.8 L12.5,218.6 L10.6,220.9 L13.6,221.1 L15.1,223.6 L16.2,220.8 L19.1,220.0 L16.7,218.2Z M14.4,202.0 L15.8,204.6 L18.7,205.1 L16.6,207.2 L17.1,210.1 L14.4,208.7 L11.8,210.1 L12.3,207.2 L10.2,205.1 L13.1,204.6Z M24.0,198.6 L22.3,201.0 L23.4,203.8 L20.6,203.0 L18.3,204.9 L18.1,201.9 L15.6,200.3 L18.4,199.3 L19.2,196.4 L21.0,198.8Z M25.4,212.9 L22.7,211.6 L22.3,208.6 L20.2,210.8 L17.2,210.3 L18.6,212.9 L17.2,215.5 L20.2,215.0 L22.3,217.2 L22.7,214.2Z M28.8,203.4 L26.3,205.0 L23.5,203.9 L24.3,206.8 L22.4,209.1 L25.4,209.2 L27.0,211.7 L28.0,208.9 L30.9,208.2 L28.6,206.3Z M26.3,190.1 L27.6,192.8 L30.6,193.2 L28.4,195.3 L28.9,198.2 L26.3,196.8 L23.7,198.2 L24.2,195.3 L22.0,193.2 L25.0,192.8Z M35.8,186.7 L34.2,189.2 L35.3,192.0 L32.4,191.1 L30.1,193.0 L30.0,190.1 L27.5,188.5 L30.3,187.4 L31.0,184.6 L32.9,186.9Z M37.2,201.0 L34.6,199.7 L34.1,196.8 L32.0,198.9 L29.1,198.4 L30.5,201.0 L29.1,203.7 L32.0,203.2 L34.1,205.3 L34.6,202.4Z M40.6,191.5 L38.2,193.2 L35.4,192.1 L36.2,194.9 L34.3,197.2 L37.3,197.3 L38.9,199.9 L39.9,197.1 L42.8,196.3 L40.4,194.5Z M38.2,178.3 L39.5,180.9 L42.4,181.4 L40.3,183.4 L40.8,186.4 L38.2,185.0 L35.5,186.4 L36.0,183.4 L33.9,181.4 L36.8,180.9Z M47.7,174.8 L46.0,177.3 L47.1,180.1 L44.3,179.3 L42.0,181.2 L41.9,178.2 L39.3,176.6 L42.1,175.6 L42.9,172.7 L44.7,175.0Z M49.1,189.2 L46.4,187.9 L46.0,184.9 L43.9,187.1 L41.0,186.5 L42.4,189.2 L41.0,191.8 L43.9,191.3 L46.0,193.5 L46.4,190.5Z M52.5,179.6 L50.0,181.3 L47.2,180.2 L48.1,183.1 L46.2,185.4 L49.1,185.5 L50.7,188.0 L51.8,185.2 L54.6,184.5 L52.3,182.6Z M50.0,166.4 L51.3,169.1 L54.3,169.5 L52.1,171.6 L52.7,174.5 L50.0,173.1 L47.4,174.5 L47.9,171.6 L45.7,169.5 L48.7,169.1Z M59.6,163.0 L57.9,165.5 L59.0,168.2 L56.1,167.4 L53.8,169.3 L53.7,166.3 L51.2,164.8 L54.0,163.7 L54.7,160.8 L56.6,163.2Z M60.9,177.3 L58.3,176.0 L57.8,173.1 L55.8,175.2 L52.8,174.7 L54.2,177.3 L52.8,180.0 L55.8,179.5 L57.8,181.6 L58.3,178.6Z M64.4,167.8 L61.9,169.4 L59.1,168.3 L59.9,171.2 L58.0,173.5 L61.0,173.6 L62.6,176.1 L63.6,173.3 L66.5,172.6 L64.2,170.8Z M61.9,154.5 L63.2,157.2 L66.1,157.6 L64.0,159.7 L64.5,162.7 L61.9,161.3 L59.2,162.7 L59.7,159.7 L57.6,157.6 L60.6,157.2Z M71.4,151.1 L69.8,153.6 L70.9,156.4 L68.0,155.6 L65.7,157.5 L65.6,154.5 L63.1,152.9 L65.9,151.9 L66.6,149.0 L68.4,151.3Z M72.8,165.5 L70.1,164.2 L69.7,161.2 L67.6,163.3 L64.7,162.8 L66.1,165.5 L64.7,168.1 L67.6,167.6 L69.7,169.7 L70.1,166.8Z M76.2,155.9 L73.7,157.6 L71.0,156.5 L71.8,159.3 L69.9,161.6 L72.9,161.8 L74.4,164.3 L75.5,161.5 L78.4,160.7 L76.0,158.9Z M73.7,142.7 L75.1,145.3 L78.0,145.8 L75.9,147.9 L76.4,150.8 L73.7,149.4 L71.1,150.8 L71.6,147.9 L69.5,145.8 L72.4,145.3Z M83.3,139.3 L81.6,141.7 L82.7,144.5 L79.9,143.7 L77.6,145.6 L77.4,142.6 L74.9,141.0 L77.7,140.0 L78.5,137.1 L80.3,139.5Z M84.7,153.6 L82.0,152.3 L81.6,149.3 L79.5,151.5 L76.5,151.0 L77.9,153.6 L76.5,156.2 L79.5,155.7 L81.6,157.9 L82.0,154.9Z M88.1,144.1 L85.6,145.7 L82.8,144.6 L83.6,147.5 L81.7,149.8 L84.7,149.9 L86.3,152.4 L87.3,149.6 L90.2,148.9 L87.9,147.0Z M85.6,130.8 L86.9,133.5 L89.9,133.9 L87.7,136.0 L88.2,138.9 L85.6,137.6 L83.0,138.9 L83.5,136.0 L81.3,133.9 L84.3,133.5Z M95.1,127.4 L93.5,129.9 L94.6,132.7 L91.7,131.8 L89.4,133.8 L89.3,130.8 L86.8,129.2 L89.6,128.1 L90.3,125.3 L92.2,127.6Z M96.5,141.8 L93.9,140.4 L93.4,137.5 L91.3,139.6 L88.4,139.1 L89.8,141.8 L88.4,144.4 L91.3,143.9 L93.4,146.0 L93.9,143.1Z M99.9,132.2 L97.5,133.9 L94.7,132.8 L95.5,135.6 L93.6,137.9 L96.6,138.0 L98.2,140.6 L99.2,137.8 L102.1,137.0 L99.7,135.2Z M97.4,119.0 L98.8,121.6 L101.7,122.1 L99.6,124.1 L100.1,127.1 L97.4,125.7 L94.8,127.1 L95.3,124.1 L93.2,122.1 L96.1,121.6Z M107.0,115.5 L105.3,118.0 L106.4,120.8 L103.6,120.0 L101.3,121.9 L101.2,118.9 L98.6,117.3 L101.4,116.3 L102.2,113.4 L104.0,115.7Z M108.4,129.9 L105.7,128.6 L105.3,125.6 L103.2,127.8 L100.3,127.3 L101.6,129.9 L100.3,132.5 L103.2,132.0 L105.3,134.2 L105.7,131.2Z M111.8,120.3 L109.3,122.0 L106.5,120.9 L107.4,123.8 L105.4,126.1 L108.4,126.2 L110.0,128.7 L111.1,125.9 L113.9,125.2 L111.6,123.3Z M109.3,107.1 L110.6,109.8 L113.6,110.2 L111.4,112.3 L111.9,115.2 L109.3,113.8 L106.7,115.2 L107.2,112.3 L105.0,110.2 L108.0,109.8Z M118.9,103.7 L117.2,106.2 L118.3,108.9 L115.4,108.1 L113.1,110.0 L113.0,107.1 L110.5,105.5 L113.3,104.4 L114.0,101.5 L115.9,103.9Z M120.2,118.0 L117.6,116.7 L117.1,113.8 L115.1,115.9 L112.1,115.4 L113.5,118.0 L112.1,120.7 L115.1,120.2 L117.1,122.3 L117.6,119.4Z M123.7,108.5 L121.2,110.1 L118.4,109.0 L119.2,111.9 L117.3,114.2 L120.3,114.3 L121.9,116.8 L122.9,114.0 L125.8,113.3 L123.5,111.5Z M121.2,95.2 L122.5,97.9 L125.4,98.3 L123.3,100.4 L123.8,103.4 L121.2,102.0 L118.5,103.4 L119.0,100.4 L116.9,98.3 L119.8,97.9Z M130.7,91.8 L129.1,94.3 L130.2,97.1 L127.3,96.3 L125.0,98.2 L124.9,95.2 L122.4,93.6 L125.2,92.6 L125.9,89.7 L127.7,92.0Z M132.1,106.2 L129.4,104.9 L129.0,101.9 L126.9,104.0 L124.0,103.5 L125.4,106.2 L124.0,108.8 L126.9,108.3 L129.0,110.4 L129.4,107.5Z M135.5,96.6 L133.0,98.3 L130.3,97.2 L131.1,100.0 L129.2,102.3 L132.1,102.5 L133.7,105.0 L134.8,102.2 L137.7,101.4 L135.3,99.6Z M133.0,83.4 L134.3,86.1 L137.3,86.5 L135.2,88.6 L135.7,91.5 L133.0,90.1 L130.4,91.5 L130.9,88.6 L128.8,86.5 L131.7,86.1Z M142.6,80.0 L140.9,82.4 L142.0,85.2 L139.2,84.4 L136.9,86.3 L136.7,83.3 L134.2,81.7 L137.0,80.7 L137.8,77.8 L139.6,80.2Z M144.0,94.3 L141.3,93.0 L140.9,90.0 L138.8,92.2 L135.8,91.7 L137.2,94.3 L135.8,97.0 L138.8,96.4 L140.9,98.6 L141.3,95.6Z M147.4,84.8 L144.9,86.4 L142.1,85.3 L142.9,88.2 L141.0,90.5 L144.0,90.6 L145.6,93.1 L146.6,90.3 L149.5,89.6 L147.2,87.7Z M144.9,71.5 L146.2,74.2 L149.2,74.6 L147.0,76.7 L147.5,79.6 L144.9,78.3 L142.2,79.6 L142.8,76.7 L140.6,74.6 L143.6,74.2Z M154.4,68.1 L152.8,70.6 L153.9,73.4 L151.0,72.5 L148.7,74.5 L148.6,71.5 L146.1,69.9 L148.9,68.8 L149.6,66.0 L151.5,68.3Z M155.8,82.5 L153.1,81.1 L152.7,78.2 L150.6,80.3 L147.7,79.8 L149.1,82.5 L147.7,85.1 L150.6,84.6 L152.7,86.7 L153.1,83.8Z M159.2,72.9 L156.8,74.6 L154.0,73.5 L154.8,76.3 L152.9,78.6 L155.9,78.7 L157.5,81.3 L158.5,78.5 L161.4,77.7 L159.0,75.9Z M156.7,59.7 L158.1,62.3 L161.0,62.8 L158.9,64.8 L159.4,67.8 L156.7,66.4 L154.1,67.8 L154.6,64.8 L152.5,62.8 L155.4,62.3Z M166.3,56.2 L164.6,58.7 L165.7,61.5 L162.9,60.7 L160.6,62.6 L160.5,59.6 L157.9,58.0 L160.7,57.0 L161.5,54.1 L163.3,56.4Z M167.7,70.6 L165.0,69.3 L164.6,66.3 L162.5,68.5 L159.6,68.0 L160.9,70.6 L159.6,73.2 L162.5,72.7 L164.6,74.9 L165.0,71.9Z M171.1,61.0 L168.6,62.7 L165.8,61.6 L166.7,64.5 L164.7,66.8 L167.7,66.9 L169.3,69.4 L170.4,66.6 L173.2,65.9 L170.9,64.0Z M168.6,47.8 L169.9,50.5 L172.9,50.9 L170.7,53.0 L171.2,55.9 L168.6,54.5 L166.0,55.9 L166.5,53.0 L164.3,50.9 L167.3,50.5Z M178.2,44.4 L176.5,46.9 L177.6,49.6 L174.7,48.8 L172.4,50.7 L172.3,47.8 L169.8,46.2 L172.6,45.1 L173.3,42.2 L175.2,44.6Z M179.5,58.7 L176.9,57.4 L176.4,54.5 L174.4,56.6 L171.4,56.1 L172.8,58.7 L171.4,61.4 L174.4,60.9 L176.4,63.0 L176.9,60.1Z M183.0,49.2 L180.5,50.8 L177.7,49.7 L178.5,52.6 L176.6,54.9 L179.6,55.0 L181.2,57.5 L182.2,54.7 L185.1,54.0 L182.8,52.2Z M180.5,35.9 L181.8,38.6 L184.7,39.0 L182.6,41.1 L183.1,44.1 L180.5,42.7 L177.8,44.1 L178.3,41.1 L176.2,39.0 L179.1,38.6Z M190.0,32.5 L188.4,35.0 L189.5,37.8 L186.6,37.0 L184.3,38.9 L184.2,35.9 L181.7,34.3 L184.5,33.3 L185.2,30.4 L187.0,32.7Z M191.4,46.9 L188.7,45.6 L188.3,42.6 L186.2,44.7 L183.3,44.2 L184.7,46.9 L183.3,49.5 L186.2,49.0 L188.3,51.1 L188.7,48.2Z M194.8,37.3 L192.3,39.0 L189.6,37.9 L190.4,40.8 L188.5,43.0 L191.4,43.2 L193.0,45.7 L194.1,42.9 L197.0,42.2 L194.6,40.3Z M192.3,24.1 L193.6,26.8 L196.6,27.2 L194.5,29.3 L195.0,32.2 L192.3,30.8 L189.7,32.2 L190.2,29.3 L188.1,27.2 L191.0,26.8Z M201.9,20.7 L200.2,23.1 L201.3,25.9 L198.4,25.1 L196.2,27.0 L196.0,24.0 L193.5,22.4 L196.3,21.4 L197.0,18.5 L198.9,20.9Z M203.3,35.0 L200.6,33.7 L200.2,30.7 L198.1,32.9 L195.1,32.4 L196.5,35.0 L195.1,37.7 L198.1,37.2 L200.2,39.3 L200.6,36.3Z M206.7,25.5 L204.2,27.1 L201.4,26.0 L202.2,28.9 L200.3,31.2 L203.3,31.3 L204.9,33.8 L205.9,31.0 L208.8,30.3 L206.5,28.4Z M204.2,12.2 L205.5,14.9 L208.5,15.3 L206.3,17.4 L206.8,20.3 L204.2,19.0 L201.5,20.3 L202.0,17.4 L199.9,15.3 L202.9,14.9Z M17.2,239.2 L14.7,240.8 L11.9,239.7 L12.7,242.6 L10.8,244.9 L13.8,245.0 L15.4,247.5 L16.4,244.7 L19.3,244.0 L17.0,242.2Z M14.7,225.9 L16.0,228.6 L18.9,229.0 L16.8,231.1 L17.3,234.1 L14.7,232.7 L12.0,234.1 L12.5,231.1 L10.4,229.0 L13.4,228.6Z M24.2,222.5 L22.6,225.0 L23.7,227.8 L20.8,227.0 L18.5,228.9 L18.4,225.9 L15.9,224.3 L18.7,223.3 L19.4,220.4 L21.2,222.7Z M25.6,236.9 L22.9,235.6 L22.5,232.6 L20.4,234.7 L17.5,234.2 L18.9,236.9 L17.5,239.5 L20.4,239.0 L22.5,241.1 L22.9,238.2Z M29.0,227.3 L26.5,229.0 L23.8,227.9 L24.6,230.7 L22.7,233.0 L25.7,233.2 L27.2,235.7 L28.3,232.9 L31.2,232.1 L28.8,230.3Z M26.5,214.1 L27.9,216.7 L30.8,217.2 L28.7,219.3 L29.2,222.2 L26.5,220.8 L23.9,222.2 L24.4,219.3 L22.3,217.2 L25.2,216.7Z M36.1,210.7 L34.4,213.1 L35.5,215.9 L32.7,215.1 L30.4,217.0 L30.2,214.0 L27.7,212.4 L30.5,211.4 L31.3,208.5 L33.1,210.9Z M37.5,225.0 L34.8,223.7 L34.4,220.7 L32.3,222.9 L29.3,222.4 L30.7,225.0 L29.3,227.6 L32.3,227.1 L34.4,229.3 L34.8,226.3Z M40.9,215.5 L38.4,217.1 L35.6,216.0 L36.4,218.9 L34.5,221.2 L37.5,221.3 L39.1,223.8 L40.1,221.0 L43.0,220.3 L40.7,218.4Z M38.4,202.2 L39.7,204.9 L42.7,205.3 L40.5,207.4 L41.0,210.3 L38.4,209.0 L35.8,210.3 L36.3,207.4 L34.1,205.3 L37.1,204.9Z M47.9,198.8 L46.3,201.3 L47.4,204.1 L44.5,203.2 L42.2,205.2 L42.1,202.2 L39.6,200.6 L42.4,199.5 L43.1,196.7 L45.0,199.0Z M49.3,213.2 L46.7,211.8 L46.2,208.9 L44.1,211.0 L41.2,210.5 L42.6,213.2 L41.2,215.8 L44.1,215.3 L46.2,217.4 L46.7,214.5Z M52.7,203.6 L50.3,205.3 L47.5,204.2 L48.3,207.0 L46.4,209.3 L49.4,209.4 L51.0,212.0 L52.0,209.2 L54.9,208.4 L52.5,206.6Z M50.3,190.4 L51.6,193.0 L54.5,193.5 L52.4,195.5 L52.9,198.5 L50.3,197.1 L47.6,198.5 L48.1,195.5 L46.0,193.5 L48.9,193.0Z M59.8,186.9 L58.1,189.4 L59.2,192.2 L56.4,191.4 L54.1,193.3 L54.0,190.3 L51.4,188.7 L54.2,187.7 L55.0,184.8 L56.8,187.1Z M61.2,201.3 L58.5,200.0 L58.1,197.0 L56.0,199.2 L53.1,198.7 L54.5,201.3 L53.1,203.9 L56.0,203.4 L58.1,205.6 L58.5,202.6Z M64.6,191.7 L62.1,193.4 L59.4,192.3 L60.2,195.2 L58.3,197.5 L61.2,197.6 L62.8,200.1 L63.9,197.3 L66.7,196.6 L64.4,194.7Z M62.1,178.5 L63.4,181.2 L66.4,181.6 L64.2,183.7 L64.8,186.6 L62.1,185.2 L59.5,186.6 L60.0,183.7 L57.8,181.6 L60.8,181.2Z M71.7,175.1 L70.0,177.6 L71.1,180.3 L68.2,179.5 L65.9,181.4 L65.8,178.5 L63.3,176.9 L66.1,175.8 L66.8,172.9 L68.7,175.3Z M73.0,189.4 L70.4,188.1 L69.9,185.2 L67.9,187.3 L64.9,186.8 L66.3,189.4 L64.9,192.1 L67.9,191.6 L69.9,193.7 L70.4,190.8Z M76.5,179.9 L74.0,181.5 L71.2,180.4 L72.0,183.3 L70.1,185.6 L73.1,185.7 L74.7,188.2 L75.7,185.4 L78.6,184.7 L76.3,182.9Z M74.0,166.6 L75.3,169.3 L78.2,169.7 L76.1,171.8 L76.6,174.8 L74.0,173.4 L71.3,174.8 L71.8,171.8 L69.7,169.7 L72.7,169.3Z M83.5,163.2 L81.9,165.7 L83.0,168.5 L80.1,167.7 L77.8,169.6 L77.7,166.6 L75.2,165.0 L78.0,164.0 L78.7,161.1 L80.5,163.4Z M84.9,177.6 L82.2,176.3 L81.8,173.3 L79.7,175.4 L76.8,174.9 L78.2,177.6 L76.8,180.2 L79.7,179.7 L81.8,181.8 L82.2,178.9Z M88.3,168.0 L85.8,169.7 L83.1,168.6 L83.9,171.4 L82.0,173.7 L85.0,173.9 L86.5,176.4 L87.6,173.6 L90.5,172.8 L88.1,171.0Z M85.8,154.8 L87.2,157.5 L90.1,157.9 L88.0,160.0 L88.5,162.9 L85.8,161.5 L83.2,162.9 L83.7,160.0 L81.6,157.9 L84.5,157.5Z M95.4,151.4 L93.7,153.8 L94.8,156.6 L92.0,155.8 L89.7,157.7 L89.5,154.7 L87.0,153.1 L89.8,152.1 L90.6,149.2 L92.4,151.6Z M96.8,165.7 L94.1,164.4 L93.7,161.4 L91.6,163.6 L88.6,163.1 L90.0,165.7 L88.6,168.4 L91.6,167.8 L93.7,170.0 L94.1,167.0Z M100.2,156.2 L97.7,157.8 L94.9,156.7 L95.7,159.6 L93.8,161.9 L96.8,162.0 L98.4,164.5 L99.4,161.7 L102.3,161.0 L100.0,159.1Z M97.7,142.9 L99.0,145.6 L102.0,146.0 L99.8,148.1 L100.3,151.0 L97.7,149.7 L95.1,151.0 L95.6,148.1 L93.4,146.0 L96.4,145.6Z M107.2,139.5 L105.6,142.0 L106.7,144.8 L103.8,143.9 L101.5,145.9 L101.4,142.9 L98.9,141.3 L101.7,140.2 L102.4,137.4 L104.3,139.7Z M108.6,153.9 L106.0,152.5 L105.5,149.6 L103.4,151.7 L100.5,151.2 L101.9,153.9 L100.5,156.5 L103.4,156.0 L105.5,158.1 L106.0,155.2Z M112.0,144.3 L109.6,146.0 L106.8,144.9 L107.6,147.7 L105.7,150.0 L108.7,150.1 L110.3,152.7 L111.3,149.9 L114.2,149.1 L111.8,147.3Z M109.6,131.1 L110.9,133.7 L113.8,134.2 L111.7,136.2 L112.2,139.2 L109.6,137.8 L106.9,139.2 L107.4,136.2 L105.3,134.2 L108.2,133.7Z M119.1,127.6 L117.4,130.1 L118.5,132.9 L115.7,132.1 L113.4,134.0 L113.3,131.0 L110.7,129.4 L113.5,128.4 L114.3,125.5 L116.1,127.8Z M120.5,142.0 L117.8,140.7 L117.4,137.7 L115.3,139.9 L112.4,139.4 L113.8,142.0 L112.4,144.6 L115.3,144.1 L117.4,146.3 L117.8,143.3Z M123.9,132.4 L121.4,134.1 L118.6,133.0 L119.5,135.9 L117.6,138.2 L120.5,138.3 L122.1,140.8 L123.2,138.0 L126.0,137.3 L123.7,135.4Z M121.4,119.2 L122.7,121.9 L125.7,122.3 L123.5,124.4 L124.1,127.3 L121.4,125.9 L118.8,127.3 L119.3,124.4 L117.1,122.3 L120.1,121.9Z M131.0,115.8 L129.3,118.3 L130.4,121.0 L127.5,120.2 L125.2,122.1 L125.1,119.2 L122.6,117.6 L125.4,116.5 L126.1,113.6 L128.0,116.0Z M132.3,130.1 L129.7,128.8 L129.2,125.9 L127.2,128.0 L124.2,127.5 L125.6,130.1 L124.2,132.8 L127.2,132.3 L129.2,134.4 L129.7,131.5Z M135.8,120.6 L133.3,122.2 L130.5,121.1 L131.3,124.0 L129.4,126.3 L132.4,126.4 L134.0,128.9 L135.0,126.1 L137.9,125.4 L135.6,123.6Z M133.3,107.3 L134.6,110.0 L137.5,110.4 L135.4,112.5 L135.9,115.5 L133.3,114.1 L130.6,115.5 L131.1,112.5 L129.0,110.4 L132.0,110.0Z M142.8,103.9 L141.2,106.4 L142.3,109.2 L139.4,108.4 L137.1,110.3 L137.0,107.3 L134.5,105.7 L137.3,104.7 L138.0,101.8 L139.8,104.1Z M144.2,118.3 L141.5,117.0 L141.1,114.0 L139.0,116.1 L136.1,115.6 L137.5,118.3 L136.1,120.9 L139.0,120.4 L141.1,122.5 L141.5,119.6Z M147.6,108.7 L145.1,110.4 L142.4,109.3 L143.2,112.2 L141.3,114.4 L144.3,114.6 L145.8,117.1 L146.9,114.3 L149.8,113.6 L147.4,111.7Z M145.1,95.5 L146.5,98.2 L149.4,98.6 L147.3,100.7 L147.8,103.6 L145.1,102.2 L142.5,103.6 L143.0,100.7 L140.9,98.6 L143.8,98.2Z M154.7,92.1 L153.0,94.5 L154.1,97.3 L151.3,96.5 L149.0,98.4 L148.8,95.4 L146.3,93.8 L149.1,92.8 L149.9,89.9 L151.7,92.3Z M156.1,106.4 L153.4,105.1 L153.0,102.1 L150.9,104.3 L147.9,103.8 L149.3,106.4 L147.9,109.1 L150.9,108.6 L153.0,110.7 L153.4,107.7Z M159.5,96.9 L157.0,98.5 L154.2,97.4 L155.0,100.3 L153.1,102.6 L156.1,102.7 L157.7,105.2 L158.7,102.4 L161.6,101.7 L159.3,99.8Z M157.0,83.6 L158.3,86.3 L161.3,86.7 L159.1,88.8 L159.6,91.7 L157.0,90.4 L154.4,91.7 L154.9,88.8 L152.7,86.7 L155.7,86.3Z M166.5,80.2 L164.9,82.7 L166.0,85.5 L163.1,84.7 L160.8,86.6 L160.7,83.6 L158.2,82.0 L161.0,81.0 L161.7,78.1 L163.6,80.4Z M167.9,94.6 L165.3,93.2 L164.8,90.3 L162.7,92.4 L159.8,91.9 L161.2,94.6 L159.8,97.2 L162.7,96.7 L164.8,98.8 L165.3,95.9Z M171.3,85.0 L168.9,86.7 L166.1,85.6 L166.9,88.4 L165.0,90.7 L168.0,90.8 L169.6,93.4 L170.6,90.6 L173.5,89.8 L171.1,88.0Z M168.8,71.8 L170.2,74.4 L173.1,74.9 L171.0,76.9 L171.5,79.9 L168.8,78.5 L166.2,79.9 L166.7,76.9 L164.6,74.9 L167.5,74.4Z M178.4,68.4 L176.7,70.8 L177.8,73.6 L175.0,72.8 L172.7,74.7 L172.6,71.7 L170.0,70.1 L172.8,69.1 L173.6,66.2 L175.4,68.5Z M179.8,82.7 L177.1,81.4 L176.7,78.4 L174.6,80.6 L171.7,80.1 L173.0,82.7 L171.7,85.3 L174.6,84.8 L176.7,87.0 L177.1,84.0Z M183.2,73.2 L180.7,74.8 L177.9,73.7 L178.8,76.6 L176.8,78.9 L179.8,79.0 L181.4,81.5 L182.5,78.7 L185.3,78.0 L183.0,76.1Z M180.7,59.9 L182.0,62.6 L185.0,63.0 L182.8,65.1 L183.3,68.0 L180.7,66.6 L178.1,68.0 L178.6,65.1 L176.4,63.0 L179.4,62.6Z M190.3,56.5 L188.6,59.0 L189.7,61.7 L186.8,60.9 L184.5,62.8 L184.4,59.9 L181.9,58.3 L184.7,57.2 L185.4,54.3 L187.3,56.7Z M191.6,70.8 L189.0,69.5 L188.5,66.6 L186.5,68.7 L183.5,68.2 L184.9,70.8 L183.5,73.5 L186.5,73.0 L188.5,75.1 L189.0,72.2Z M195.1,61.3 L192.6,62.9 L189.8,61.8 L190.6,64.7 L188.7,67.0 L191.7,67.1 L193.3,69.6 L194.3,66.8 L197.2,66.1 L194.9,64.3Z M192.6,48.0 L193.9,50.7 L196.8,51.1 L194.7,53.2 L195.2,56.2 L192.6,54.8 L189.9,56.2 L190.4,53.2 L188.3,51.1 L191.2,50.7Z M202.1,44.6 L200.5,47.1 L201.6,49.9 L198.7,49.1 L196.4,51.0 L196.3,48.0 L193.8,46.4 L196.6,45.4 L197.3,42.5 L199.1,44.8Z M203.5,59.0 L200.8,57.7 L200.4,54.7 L198.3,56.8 L195.4,56.3 L196.8,59.0 L195.4,61.6 L198.3,61.1 L200.4,63.2 L200.8,60.3Z M206.9,49.4 L204.4,51.1 L201.7,50.0 L202.5,52.9 L200.6,55.1 L203.5,55.3 L205.1,57.8 L206.2,55.0 L209.1,54.3 L206.7,52.4Z M204.4,36.2 L205.7,38.9 L208.7,39.3 L206.6,41.4 L207.1,44.3 L204.4,42.9 L201.8,44.3 L202.3,41.4 L200.2,39.3 L203.1,38.9Z M17.4,263.1 L14.9,264.8 L12.2,263.7 L13.0,266.6 L11.1,268.9 L14.0,269.0 L15.6,271.5 L16.7,268.7 L19.6,268.0 L17.2,266.1Z M14.9,249.9 L16.2,252.6 L19.2,253.0 L17.1,255.1 L17.6,258.0 L14.9,256.6 L12.3,258.0 L12.8,255.1 L10.6,253.0 L13.6,252.6Z M24.5,246.5 L22.8,249.0 L23.9,251.7 L21.0,250.9 L18.8,252.8 L18.6,249.9 L16.1,248.3 L18.9,247.2 L19.6,244.3 L21.5,246.7Z M25.9,260.8 L23.2,259.5 L22.8,256.6 L20.7,258.7 L17.7,258.2 L19.1,260.8 L17.7,263.5 L20.7,263.0 L22.8,265.1 L23.2,262.2Z M29.3,251.3 L26.8,252.9 L24.0,251.8 L24.8,254.7 L22.9,257.0 L25.9,257.1 L27.5,259.6 L28.5,256.8 L31.4,256.1 L29.1,254.3Z M26.8,238.0 L28.1,240.7 L31.0,241.1 L28.9,243.2 L29.4,246.2 L26.8,244.8 L24.1,246.2 L24.6,243.2 L22.5,241.1 L25.5,240.7Z M36.3,234.6 L34.7,237.1 L35.8,239.9 L32.9,239.1 L30.6,241.0 L30.5,238.0 L28.0,236.4 L30.8,235.4 L31.5,232.5 L33.3,234.8Z M37.7,249.0 L35.0,247.7 L34.6,244.7 L32.5,246.8 L29.6,246.3 L31.0,249.0 L29.6,251.6 L32.5,251.1 L34.6,253.2 L35.0,250.3Z M41.1,239.4 L38.6,241.1 L35.9,240.0 L36.7,242.8 L34.8,245.1 L37.8,245.3 L39.4,247.8 L40.4,245.0 L43.3,244.2 L40.9,242.4Z M38.6,226.2 L40.0,228.9 L42.9,229.3 L40.8,231.4 L41.3,234.3 L38.6,232.9 L36.0,234.3 L36.5,231.4 L34.4,229.3 L37.3,228.9Z M48.2,222.8 L46.5,225.2 L47.6,228.0 L44.8,227.2 L42.5,229.1 L42.4,226.1 L39.8,224.5 L42.6,223.5 L43.4,220.6 L45.2,223.0Z M49.6,237.1 L46.9,235.8 L46.5,232.8 L44.4,235.0 L41.5,234.5 L42.8,237.1 L41.5,239.8 L44.4,239.2 L46.5,241.4 L46.9,238.4Z M53.0,227.6 L50.5,229.2 L47.7,228.1 L48.5,231.0 L46.6,233.3 L49.6,233.4 L51.2,235.9 L52.2,233.1 L55.1,232.4 L52.8,230.5Z M50.5,214.3 L51.8,217.0 L54.8,217.4 L52.6,219.5 L53.1,222.4 L50.5,221.1 L47.9,222.4 L48.4,219.5 L46.2,217.4 L49.2,217.0Z M60.0,210.9 L58.4,213.4 L59.5,216.2 L56.6,215.3 L54.3,217.3 L54.2,214.3 L51.7,212.7 L54.5,211.6 L55.2,208.8 L57.1,211.1Z M61.4,225.3 L58.8,223.9 L58.3,221.0 L56.2,223.1 L53.3,222.6 L54.7,225.3 L53.3,227.9 L56.2,227.4 L58.3,229.5 L58.8,226.6Z M64.8,215.7 L62.4,217.4 L59.6,216.3 L60.4,219.1 L58.5,221.4 L61.5,221.5 L63.1,224.1 L64.1,221.3 L67.0,220.5 L64.7,218.7Z M62.4,202.5 L63.7,205.1 L66.6,205.6 L64.5,207.6 L65.0,210.6 L62.4,209.2 L59.7,210.6 L60.2,207.6 L58.1,205.6 L61.0,205.1Z M71.9,199.0 L70.2,201.5 L71.4,204.3 L68.5,203.5 L66.2,205.4 L66.1,202.4 L63.5,200.8 L66.3,199.8 L67.1,196.9 L68.9,199.2Z M73.3,213.4 L70.6,212.1 L70.2,209.1 L68.1,211.3 L65.2,210.8 L66.6,213.4 L65.2,216.0 L68.1,215.5 L70.2,217.7 L70.6,214.7Z M76.7,203.8 L74.2,205.5 L71.5,204.4 L72.3,207.3 L70.4,209.6 L73.3,209.7 L74.9,212.2 L76.0,209.4 L78.9,208.7 L76.5,206.8Z M74.2,190.6 L75.5,193.3 L78.5,193.7 L76.4,195.8 L76.9,198.7 L74.2,197.3 L71.6,198.7 L72.1,195.8 L69.9,193.7 L72.9,193.3Z M83.8,187.2 L82.1,189.7 L83.2,192.4 L80.3,191.6 L78.0,193.5 L77.9,190.6 L75.4,189.0 L78.2,187.9 L78.9,185.0 L80.8,187.4Z M85.2,201.5 L82.5,200.2 L82.0,197.3 L80.0,199.4 L77.0,198.9 L78.4,201.5 L77.0,204.2 L80.0,203.7 L82.0,205.8 L82.5,202.9Z M88.6,192.0 L86.1,193.6 L83.3,192.5 L84.1,195.4 L82.2,197.7 L85.2,197.8 L86.8,200.3 L87.8,197.5 L90.7,196.8 L88.4,195.0Z M86.1,178.7 L87.4,181.4 L90.3,181.8 L88.2,183.9 L88.7,186.9 L86.1,185.5 L83.4,186.9 L83.9,183.9 L81.8,181.8 L84.8,181.4Z M95.6,175.3 L94.0,177.8 L95.1,180.6 L92.2,179.8 L89.9,181.7 L89.8,178.7 L87.3,177.1 L90.1,176.1 L90.8,173.2 L92.6,175.5Z M97.0,189.7 L94.3,188.4 L93.9,185.4 L91.8,187.5 L88.9,187.0 L90.3,189.7 L88.9,192.3 L91.8,191.8 L93.9,193.9 L94.3,191.0Z M100.4,180.1 L97.9,181.8 L95.2,180.7 L96.0,183.6 L94.1,185.8 L97.1,186.0 L98.6,188.5 L99.7,185.7 L102.6,185.0 L100.2,183.1Z M97.9,166.9 L99.3,169.6 L102.2,170.0 L100.1,172.1 L100.6,175.0 L97.9,173.6 L95.3,175.0 L95.8,172.1 L93.7,170.0 L96.6,169.6Z M107.5,163.5 L105.8,165.9 L106.9,168.7 L104.1,167.9 L101.8,169.8 L101.6,166.8 L99.1,165.2 L101.9,164.2 L102.7,161.3 L104.5,163.7Z M108.9,177.8 L106.2,176.5 L105.8,173.5 L103.7,175.7 L100.7,175.2 L102.1,177.8 L100.7,180.5 L103.7,180.0 L105.8,182.1 L106.2,179.1Z M112.3,168.3 L109.8,169.9 L107.0,168.8 L107.8,171.7 L105.9,174.0 L108.9,174.1 L110.5,176.6 L111.5,173.8 L114.4,173.1 L112.1,171.2Z M109.8,155.0 L111.1,157.7 L114.1,158.1 L111.9,160.2 L112.4,163.1 L109.8,161.8 L107.2,163.1 L107.7,160.2 L105.5,158.1 L108.5,157.7Z M119.3,151.6 L117.7,154.1 L118.8,156.9 L115.9,156.1 L113.6,158.0 L113.5,155.0 L111.0,153.4 L113.8,152.4 L114.5,149.5 L116.4,151.8Z M120.7,166.0 L118.1,164.6 L117.6,161.7 L115.5,163.8 L112.6,163.3 L114.0,166.0 L112.6,168.6 L115.5,168.1 L117.6,170.2 L118.1,167.3Z M124.1,156.4 L121.7,158.1 L118.9,157.0 L119.7,159.8 L117.8,162.1 L120.8,162.2 L122.4,164.8 L123.4,162.0 L126.3,161.2 L123.9,159.4Z M121.7,143.2 L123.0,145.8 L125.9,146.3 L123.8,148.3 L124.3,151.3 L121.7,149.9 L119.0,151.3 L119.5,148.3 L117.4,146.3 L120.3,145.8Z M131.2,139.8 L129.5,142.2 L130.6,145.0 L127.8,144.2 L125.5,146.1 L125.4,143.1 L122.8,141.5 L125.6,140.5 L126.4,137.6 L128.2,139.9Z M132.6,154.1 L129.9,152.8 L129.5,149.8 L127.4,152.0 L124.5,151.5 L125.9,154.1 L124.5,156.7 L127.4,156.2 L129.5,158.4 L129.9,155.4Z M136.0,144.6 L133.5,146.2 L130.8,145.1 L131.6,148.0 L129.7,150.3 L132.6,150.4 L134.2,152.9 L135.3,150.1 L138.1,149.4 L135.8,147.5Z M133.5,131.3 L134.8,134.0 L137.8,134.4 L135.6,136.5 L136.2,139.4 L133.5,138.0 L130.9,139.4 L131.4,136.5 L129.2,134.4 L132.2,134.0Z M143.1,127.9 L141.4,130.4 L142.5,133.1 L139.6,132.3 L137.3,134.2 L137.2,131.3 L134.7,129.7 L137.5,128.6 L138.2,125.7 L140.1,128.1Z M144.4,142.2 L141.8,140.9 L141.3,138.0 L139.3,140.1 L136.3,139.6 L137.7,142.2 L136.3,144.9 L139.3,144.4 L141.3,146.5 L141.8,143.6Z M147.9,132.7 L145.4,134.3 L142.6,133.2 L143.4,136.1 L141.5,138.4 L144.5,138.5 L146.1,141.0 L147.1,138.2 L150.0,137.5 L147.7,135.7Z M145.4,119.4 L146.7,122.1 L149.6,122.5 L147.5,124.6 L148.0,127.6 L145.4,126.2 L142.7,127.6 L143.2,124.6 L141.1,122.5 L144.1,122.1Z M154.9,116.0 L153.3,118.5 L154.4,121.3 L151.5,120.5 L149.2,122.4 L149.1,119.4 L146.6,117.8 L149.4,116.8 L150.1,113.9 L151.9,116.2Z M156.3,130.4 L153.6,129.1 L153.2,126.1 L151.1,128.2 L148.2,127.7 L149.6,130.4 L148.2,133.0 L151.1,132.5 L153.2,134.6 L153.6,131.7Z M159.7,120.8 L157.2,122.5 L154.5,121.4 L155.3,124.3 L153.4,126.5 L156.4,126.7 L157.9,129.2 L159.0,126.4 L161.9,125.7 L159.5,123.8Z M157.2,107.6 L158.6,110.3 L161.5,110.7 L159.4,112.8 L159.9,115.7 L157.2,114.3 L154.6,115.7 L155.1,112.8 L153.0,110.7 L155.9,110.3Z M166.8,104.2 L165.1,106.7 L166.2,109.4 L163.4,108.6 L161.1,110.5 L160.9,107.5 L158.4,105.9 L161.2,104.9 L162.0,102.0 L163.8,104.4Z M168.2,118.5 L165.5,117.2 L165.1,114.2 L163.0,116.4 L160.0,115.9 L161.4,118.5 L160.0,121.2 L163.0,120.7 L165.1,122.8 L165.5,119.8Z M171.6,109.0 L169.1,110.6 L166.3,109.5 L167.1,112.4 L165.2,114.7 L168.2,114.8 L169.8,117.3 L170.8,114.5 L173.7,113.8 L171.4,111.9Z M169.1,95.7 L170.4,98.4 L173.4,98.8 L171.2,100.9 L171.7,103.8 L169.1,102.5 L166.5,103.8 L167.0,100.9 L164.8,98.8 L167.8,98.4Z M178.6,92.3 L177.0,94.8 L178.1,97.6 L175.2,96.8 L172.9,98.7 L172.8,95.7 L170.3,94.1 L173.1,93.1 L173.8,90.2 L175.7,92.5Z M180.0,106.7 L177.4,105.3 L176.9,102.4 L174.8,104.5 L171.9,104.0 L173.3,106.7 L171.9,109.3 L174.8,108.8 L176.9,110.9 L177.4,108.0Z M183.4,97.1 L181.0,98.8 L178.2,97.7 L179.0,100.5 L177.1,102.8 L180.1,102.9 L181.7,105.5 L182.7,102.7 L185.6,101.9 L183.2,100.1Z M181.0,83.9 L182.3,86.5 L185.2,87.0 L183.1,89.0 L183.6,92.0 L181.0,90.6 L178.3,92.0 L178.8,89.0 L176.7,87.0 L179.6,86.5Z M190.5,80.5 L188.8,82.9 L189.9,85.7 L187.1,84.9 L184.8,86.8 L184.7,83.8 L182.1,82.2 L184.9,81.2 L185.7,78.3 L187.5,80.6Z M191.9,94.8 L189.2,93.5 L188.8,90.5 L186.7,92.7 L183.8,92.2 L185.2,94.8 L183.8,97.4 L186.7,96.9 L188.8,99.1 L189.2,96.1Z M195.3,85.3 L192.8,86.9 L190.0,85.8 L190.9,88.7 L189.0,91.0 L191.9,91.1 L193.5,93.6 L194.6,90.8 L197.4,90.1 L195.1,88.2Z M192.8,72.0 L194.1,74.7 L197.1,75.1 L194.9,77.2 L195.5,80.1 L192.8,78.7 L190.2,80.1 L190.7,77.2 L188.5,75.1 L191.5,74.7Z M202.4,68.6 L200.7,71.1 L201.8,73.8 L198.9,73.0 L196.6,74.9 L196.5,72.0 L194.0,70.4 L196.8,69.3 L197.5,66.4 L199.4,68.8Z M203.7,82.9 L201.1,81.6 L200.6,78.7 L198.6,80.8 L195.6,80.3 L197.0,82.9 L195.6,85.6 L198.6,85.1 L200.6,87.2 L201.1,84.3Z M207.2,73.4 L204.7,75.1 L201.9,73.9 L202.7,76.8 L200.8,79.1 L203.8,79.2 L205.4,81.7 L206.4,79.0 L209.3,78.2 L207.0,76.4Z M204.7,60.1 L206.0,62.8 L208.9,63.2 L206.8,65.3 L207.3,68.3 L204.7,66.9 L202.0,68.3 L202.5,65.3 L200.4,63.2 L203.4,62.8Z M17.7,287.1 L15.2,288.8 L12.4,287.7 L13.2,290.5 L11.3,292.8 L14.3,292.9 L15.9,295.5 L16.9,292.7 L19.8,291.9 L17.5,290.1Z M15.2,273.9 L16.5,276.5 L19.4,277.0 L17.3,279.0 L17.8,282.0 L15.2,280.6 L12.5,282.0 L13.0,279.0 L10.9,277.0 L13.8,276.5Z M24.7,270.4 L23.1,272.9 L24.2,275.7 L21.3,274.9 L19.0,276.8 L18.9,273.8 L16.4,272.2 L19.2,271.2 L19.9,268.3 L21.7,270.6Z M26.1,284.8 L23.4,283.5 L23.0,280.5 L20.9,282.7 L18.0,282.2 L19.4,284.8 L18.0,287.4 L20.9,286.9 L23.0,289.1 L23.4,286.1Z M29.5,275.2 L27.0,276.9 L24.3,275.8 L25.1,278.7 L23.2,281.0 L26.1,281.1 L27.7,283.6 L28.8,280.8 L31.7,280.1 L29.3,278.2Z M27.0,262.0 L28.3,264.7 L31.3,265.1 L29.2,267.2 L29.7,270.1 L27.0,268.7 L24.4,270.1 L24.9,267.2 L22.8,265.1 L25.7,264.7Z M36.6,258.6 L34.9,261.1 L36.0,263.8 L33.1,263.0 L30.9,264.9 L30.7,262.0 L28.2,260.4 L31.0,259.3 L31.7,256.4 L33.6,258.8Z M38.0,272.9 L35.3,271.6 L34.9,268.7 L32.8,270.8 L29.8,270.3 L31.2,272.9 L29.8,275.6 L32.8,275.1 L34.9,277.2 L35.3,274.3Z M41.4,263.4 L38.9,265.0 L36.1,263.9 L36.9,266.8 L35.0,269.1 L38.0,269.2 L39.6,271.7 L40.6,268.9 L43.5,268.2 L41.2,266.4Z M38.9,250.1 L40.2,252.8 L43.2,253.2 L41.0,255.3 L41.5,258.3 L38.9,256.9 L36.2,258.3 L36.7,255.3 L34.6,253.2 L37.6,252.8Z M48.4,246.7 L46.8,249.2 L47.9,252.0 L45.0,251.2 L42.7,253.1 L42.6,250.1 L40.1,248.5 L42.9,247.5 L43.6,244.6 L45.5,246.9Z M49.8,261.1 L47.1,259.8 L46.7,256.8 L44.6,258.9 L41.7,258.4 L43.1,261.1 L41.7,263.7 L44.6,263.2 L46.7,265.3 L47.1,262.4Z M53.2,251.5 L50.7,253.2 L48.0,252.1 L48.8,255.0 L46.9,257.2 L49.9,257.4 L51.5,259.9 L52.5,257.1 L55.4,256.4 L53.0,254.5Z M50.7,238.3 L52.1,241.0 L55.0,241.4 L52.9,243.5 L53.4,246.4 L50.7,245.0 L48.1,246.4 L48.6,243.5 L46.5,241.4 L49.4,241.0Z M60.3,234.9 L58.6,237.3 L59.7,240.1 L56.9,239.3 L54.6,241.2 L54.5,238.2 L51.9,236.6 L54.7,235.6 L55.5,232.7 L57.3,235.1Z M61.7,249.2 L59.0,247.9 L58.6,244.9 L56.5,247.1 L53.6,246.6 L54.9,249.2 L53.6,251.9 L56.5,251.4 L58.6,253.5 L59.0,250.5Z M65.1,239.7 L62.6,241.3 L59.8,240.2 L60.6,243.1 L58.7,245.4 L61.7,245.5 L63.3,248.0 L64.3,245.2 L67.2,244.5 L64.9,242.6Z M62.6,226.4 L63.9,229.1 L66.9,229.5 L64.7,231.6 L65.2,234.5 L62.6,233.2 L60.0,234.5 L60.5,231.6 L58.3,229.5 L61.3,229.1Z M72.1,223.0 L70.5,225.5 L71.6,228.3 L68.7,227.5 L66.4,229.4 L66.3,226.4 L63.8,224.8 L66.6,223.8 L67.3,220.9 L69.2,223.2Z M73.5,237.4 L70.9,236.0 L70.4,233.1 L68.4,235.2 L65.4,234.7 L66.8,237.4 L65.4,240.0 L68.4,239.5 L70.4,241.6 L70.9,238.7Z M76.9,227.8 L74.5,229.5 L71.7,228.4 L72.5,231.2 L70.6,233.5 L73.6,233.6 L75.2,236.2 L76.2,233.4 L79.1,232.6 L76.8,230.8Z M74.5,214.6 L75.8,217.2 L78.7,217.7 L76.6,219.7 L77.1,222.7 L74.5,221.3 L71.8,222.7 L72.3,219.7 L70.2,217.7 L73.1,217.2Z M84.0,211.2 L82.4,213.6 L83.5,216.4 L80.6,215.6 L78.3,217.5 L78.2,214.5 L75.7,212.9 L78.4,211.9 L79.2,209.0 L81.0,211.3Z M85.4,225.5 L82.7,224.2 L82.3,221.2 L80.2,223.4 L77.3,222.9 L78.7,225.5 L77.3,228.1 L80.2,227.6 L82.3,229.8 L82.7,226.8Z M88.8,216.0 L86.3,217.6 L83.6,216.5 L84.4,219.4 L82.5,221.7 L85.4,221.8 L87.0,224.3 L88.1,221.5 L91.0,220.8 L88.6,218.9Z M86.3,202.7 L87.6,205.4 L90.6,205.8 L88.5,207.9 L89.0,210.8 L86.3,209.4 L83.7,210.8 L84.2,207.9 L82.0,205.8 L85.0,205.4Z M95.9,199.3 L94.2,201.8 L95.3,204.5 L92.4,203.7 L90.2,205.6 L90.0,202.7 L87.5,201.1 L90.3,200.0 L91.0,197.1 L92.9,199.5Z M97.3,213.6 L94.6,212.3 L94.2,209.4 L92.1,211.5 L89.1,211.0 L90.5,213.6 L89.1,216.3 L92.1,215.8 L94.2,217.9 L94.6,215.0Z M100.7,204.1 L98.2,205.7 L95.4,204.6 L96.2,207.5 L94.3,209.8 L97.3,209.9 L98.9,212.4 L99.9,209.6 L102.8,208.9 L100.5,207.1Z M98.2,190.8 L99.5,193.5 L102.4,193.9 L100.3,196.0 L100.8,199.0 L98.2,197.6 L95.5,199.0 L96.0,196.0 L93.9,193.9 L96.9,193.5Z M107.7,187.4 L106.1,189.9 L107.2,192.7 L104.3,191.9 L102.0,193.8 L101.9,190.8 L99.4,189.2 L102.2,188.2 L102.9,185.3 L104.7,187.6Z M109.1,201.8 L106.4,200.5 L106.0,197.5 L103.9,199.6 L101.0,199.1 L102.4,201.8 L101.0,204.4 L103.9,203.9 L106.0,206.0 L106.4,203.1Z M112.5,192.2 L110.0,193.9 L107.3,192.8 L108.1,195.7 L106.2,197.9 L109.2,198.1 L110.8,200.6 L111.8,197.8 L114.7,197.1 L112.3,195.2Z M110.0,179.0 L111.4,181.7 L114.3,182.1 L112.2,184.2 L112.7,187.1 L110.0,185.7 L107.4,187.1 L107.9,184.2 L105.8,182.1 L108.7,181.7Z M119.6,175.6 L117.9,178.1 L119.0,180.8 L116.2,180.0 L113.9,181.9 L113.8,178.9 L111.2,177.3 L114.0,176.3 L114.8,173.4 L116.6,175.8Z M121.0,189.9 L118.3,188.6 L117.9,185.6 L115.8,187.8 L112.9,187.3 L114.2,189.9 L112.9,192.6 L115.8,192.1 L117.9,194.2 L118.3,191.2Z M124.4,180.4 L121.9,182.0 L119.1,180.9 L119.9,183.8 L118.0,186.1 L121.0,186.2 L122.6,188.7 L123.6,185.9 L126.5,185.2 L124.2,183.3Z M121.9,167.1 L123.2,169.8 L126.2,170.2 L124.0,172.3 L124.5,175.2 L121.9,173.9 L119.3,175.2 L119.8,172.3 L117.6,170.2 L120.6,169.8Z M131.4,163.7 L129.8,166.2 L130.9,169.0 L128.0,168.2 L125.7,170.1 L125.6,167.1 L123.1,165.5 L125.9,164.5 L126.6,161.6 L128.5,163.9Z M132.8,178.1 L130.2,176.7 L129.7,173.8 L127.6,175.9 L124.7,175.4 L126.1,178.1 L124.7,180.7 L127.6,180.2 L129.7,182.3 L130.2,179.4Z M136.2,168.5 L133.8,170.2 L131.0,169.1 L131.8,171.9 L129.9,174.2 L132.9,174.3 L134.5,176.9 L135.5,174.1 L138.4,173.3 L136.1,171.5Z M133.8,155.3 L135.1,157.9 L138.0,158.4 L135.9,160.4 L136.4,163.4 L133.8,162.0 L131.1,163.4 L131.6,160.4 L129.5,158.4 L132.4,157.9Z M143.3,151.9 L141.6,154.3 L142.8,157.1 L139.9,156.3 L137.6,158.2 L137.5,155.2 L134.9,153.6 L137.7,152.6 L138.5,149.7 L140.3,152.0Z M144.7,166.2 L142.0,164.9 L141.6,161.9 L139.5,164.1 L136.6,163.6 L138.0,166.2 L136.6,168.8 L139.5,168.3 L141.6,170.5 L142.0,167.5Z M148.1,156.7 L145.6,158.3 L142.9,157.2 L143.7,160.1 L141.8,162.4 L144.7,162.5 L146.3,165.0 L147.4,162.2 L150.3,161.5 L147.9,159.6Z M145.6,143.4 L146.9,146.1 L149.9,146.5 L147.8,148.6 L148.3,151.5 L145.6,150.1 L143.0,151.5 L143.5,148.6 L141.3,146.5 L144.3,146.1Z M155.2,140.0 L153.5,142.5 L154.6,145.2 L151.7,144.4 L149.4,146.3 L149.3,143.4 L146.8,141.8 L149.6,140.7 L150.3,137.8 L152.2,140.2Z M156.6,154.3 L153.9,153.0 L153.4,150.1 L151.4,152.2 L148.4,151.7 L149.8,154.3 L148.4,157.0 L151.4,156.5 L153.4,158.6 L153.9,155.7Z M160.0,144.8 L157.5,146.5 L154.7,145.3 L155.5,148.2 L153.6,150.5 L156.6,150.6 L158.2,153.1 L159.2,150.4 L162.1,149.6 L159.8,147.8Z M157.5,131.5 L158.8,134.2 L161.7,134.6 L159.6,136.7 L160.1,139.7 L157.5,138.3 L154.8,139.7 L155.3,136.7 L153.2,134.6 L156.2,134.2Z M167.0,128.1 L165.4,130.6 L166.5,133.4 L163.6,132.6 L161.3,134.5 L161.2,131.5 L158.7,129.9 L161.5,128.9 L162.2,126.0 L164.0,128.3Z M168.4,142.5 L165.7,141.2 L165.3,138.2 L163.2,140.3 L160.3,139.8 L161.7,142.5 L160.3,145.1 L163.2,144.6 L165.3,146.8 L165.7,143.8Z M171.8,132.9 L169.3,134.6 L166.6,133.5 L167.4,136.4 L165.5,138.7 L168.5,138.8 L170.0,141.3 L171.1,138.5 L174.0,137.8 L171.6,135.9Z M169.3,119.7 L170.7,122.4 L173.6,122.8 L171.5,124.9 L172.0,127.8 L169.3,126.4 L166.7,127.8 L167.2,124.9 L165.1,122.8 L168.0,122.4Z M178.9,116.3 L177.2,118.8 L178.3,121.5 L175.5,120.7 L173.2,122.6 L173.0,119.6 L170.5,118.1 L173.3,117.0 L174.1,114.1 L175.9,116.5Z M180.3,130.6 L177.6,129.3 L177.2,126.4 L175.1,128.5 L172.1,128.0 L173.5,130.6 L172.1,133.3 L175.1,132.8 L177.2,134.9 L177.6,131.9Z M183.7,121.1 L181.2,122.7 L178.4,121.6 L179.2,124.5 L177.3,126.8 L180.3,126.9 L181.9,129.4 L182.9,126.6 L185.8,125.9 L183.5,124.1Z M181.2,107.8 L182.5,110.5 L185.5,110.9 L183.3,113.0 L183.8,115.9 L181.2,114.6 L178.6,115.9 L179.1,113.0 L176.9,110.9 L179.9,110.5Z M190.7,104.4 L189.1,106.9 L190.2,109.7 L187.3,108.9 L185.0,110.8 L184.9,107.8 L182.4,106.2 L185.2,105.2 L185.9,102.3 L187.8,104.6Z M192.1,118.8 L189.5,117.4 L189.0,114.5 L186.9,116.6 L184.0,116.1 L185.4,118.8 L184.0,121.4 L186.9,120.9 L189.0,123.0 L189.5,120.1Z M195.5,109.2 L193.1,110.9 L190.3,109.8 L191.1,112.6 L189.2,114.9 L192.2,115.0 L193.8,117.6 L194.8,114.8 L197.7,114.0 L195.3,112.2Z M193.1,96.0 L194.4,98.6 L197.3,99.1 L195.2,101.2 L195.7,104.1 L193.1,102.7 L190.4,104.1 L190.9,101.2 L188.8,99.1 L191.7,98.6Z M202.6,92.6 L200.9,95.0 L202.0,97.8 L199.2,97.0 L196.9,98.9 L196.8,95.9 L194.2,94.3 L197.0,93.3 L197.8,90.4 L199.6,92.7Z M204.0,106.9 L201.3,105.6 L200.9,102.6 L198.8,104.8 L195.9,104.3 L197.3,106.9 L195.9,109.5 L198.8,109.0 L200.9,111.2 L201.3,108.2Z M207.4,97.4 L204.9,99.0 L202.2,97.9 L203.0,100.8 L201.1,103.1 L204.0,103.2 L205.6,105.7 L206.7,102.9 L209.5,102.2 L207.2,100.3Z M204.9,84.1 L206.2,86.8 L209.2,87.2 L207.0,89.3 L207.6,92.2 L204.9,90.8 L202.3,92.2 L202.8,89.3 L200.6,87.2 L203.6,86.8Z M25.0,294.4 L23.3,296.9 L24.4,299.7 L21.5,298.9 L19.2,300.8 L19.1,297.8 L16.6,296.2 L19.4,295.2 L20.1,292.3 L22.0,294.6Z M27.3,286.0 L28.6,288.6 L31.5,289.1 L29.4,291.1 L29.9,294.1 L27.3,292.7 L24.6,294.1 L25.1,291.1 L23.0,289.1 L25.9,288.6Z M36.8,282.6 L35.2,285.0 L36.3,287.8 L33.4,287.0 L31.1,288.9 L31.0,285.9 L28.5,284.3 L31.3,283.3 L32.0,280.4 L33.8,282.7Z M38.2,296.9 L35.5,295.6 L35.1,292.6 L33.0,294.8 L30.1,294.3 L31.5,296.9 L30.1,299.5 L33.0,299.0 L35.1,301.2 L35.5,298.2Z M41.6,287.4 L39.1,289.0 L36.4,287.9 L37.2,290.8 L35.3,293.1 L38.2,293.2 L39.8,295.7 L40.9,292.9 L43.8,292.2 L41.4,290.3Z M39.1,274.1 L40.4,276.8 L43.4,277.2 L41.3,279.3 L41.8,282.2 L39.1,280.8 L36.5,282.2 L37.0,279.3 L34.9,277.2 L37.8,276.8Z M48.7,270.7 L47.0,273.2 L48.1,275.9 L45.2,275.1 L43.0,277.0 L42.8,274.1 L40.3,272.5 L43.1,271.4 L43.8,268.5 L45.7,270.9Z M50.1,285.0 L47.4,283.7 L47.0,280.8 L44.9,282.9 L41.9,282.4 L43.3,285.0 L41.9,287.7 L44.9,287.2 L47.0,289.3 L47.4,286.4Z M53.5,275.5 L51.0,277.1 L48.2,276.0 L49.0,278.9 L47.1,281.2 L50.1,281.3 L51.7,283.8 L52.7,281.0 L55.6,280.3 L53.3,278.5Z M51.0,262.2 L52.3,264.9 L55.3,265.3 L53.1,267.4 L53.6,270.4 L51.0,269.0 L48.3,270.4 L48.8,267.4 L46.7,265.3 L49.7,264.9Z M60.5,258.8 L58.9,261.3 L60.0,264.1 L57.1,263.3 L54.8,265.2 L54.7,262.2 L52.2,260.6 L55.0,259.6 L55.7,256.7 L57.6,259.0Z M61.9,273.2 L59.2,271.9 L58.8,268.9 L56.7,271.0 L53.8,270.5 L55.2,273.2 L53.8,275.8 L56.7,275.3 L58.8,277.4 L59.2,274.5Z M65.3,263.6 L62.9,265.3 L60.1,264.2 L60.9,267.1 L59.0,269.3 L62.0,269.5 L63.6,272.0 L64.6,269.2 L67.5,268.5 L65.1,266.6Z M62.8,250.4 L64.2,253.1 L67.1,253.5 L65.0,255.6 L65.5,258.5 L62.8,257.1 L60.2,258.5 L60.7,255.6 L58.6,253.5 L61.5,253.1Z M72.4,247.0 L70.7,249.5 L71.8,252.2 L69.0,251.4 L66.7,253.3 L66.6,250.3 L64.0,248.7 L66.8,247.7 L67.6,244.8 L69.4,247.2Z M73.8,261.3 L71.1,260.0 L70.7,257.0 L68.6,259.2 L65.7,258.7 L67.0,261.3 L65.7,264.0 L68.6,263.5 L70.7,265.6 L71.1,262.6Z M77.2,251.8 L74.7,253.4 L71.9,252.3 L72.8,255.2 L70.8,257.5 L73.8,257.6 L75.4,260.1 L76.4,257.3 L79.3,256.6 L77.0,254.7Z M74.7,238.5 L76.0,241.2 L79.0,241.6 L76.8,243.7 L77.3,246.6 L74.7,245.3 L72.1,246.6 L72.6,243.7 L70.4,241.6 L73.4,241.2Z M84.2,235.1 L82.6,237.6 L83.7,240.4 L80.8,239.6 L78.5,241.5 L78.4,238.5 L75.9,236.9 L78.7,235.9 L79.4,233.0 L81.3,235.3Z M85.6,249.5 L83.0,248.1 L82.5,245.2 L80.5,247.3 L77.5,246.8 L78.9,249.5 L77.5,252.1 L80.5,251.6 L82.5,253.7 L83.0,250.8Z M89.1,239.9 L86.6,241.6 L83.8,240.5 L84.6,243.3 L82.7,245.6 L85.7,245.7 L87.3,248.3 L88.3,245.5 L91.2,244.7 L88.9,242.9Z M86.6,226.7 L87.9,229.3 L90.8,229.8 L88.7,231.8 L89.2,234.8 L86.6,233.4 L83.9,234.8 L84.4,231.8 L82.3,229.8 L85.2,229.3Z M96.1,223.3 L94.5,225.7 L95.6,228.5 L92.7,227.7 L90.4,229.6 L90.3,226.6 L87.8,225.0 L90.6,224.0 L91.3,221.1 L93.1,223.4Z M97.5,237.6 L94.8,236.3 L94.4,233.3 L92.3,235.5 L89.4,235.0 L90.8,237.6 L89.4,240.2 L92.3,239.7 L94.4,241.9 L94.8,238.9Z M100.9,228.1 L98.4,229.7 L95.7,228.6 L96.5,231.5 L94.6,233.8 L97.5,233.9 L99.1,236.4 L100.2,233.6 L103.1,232.9 L100.7,231.0Z M98.4,214.8 L99.7,217.5 L102.7,217.9 L100.6,220.0 L101.1,222.9 L98.4,221.5 L95.8,222.9 L96.3,220.0 L94.2,217.9 L97.1,217.5Z M108.0,211.4 L106.3,213.9 L107.4,216.6 L104.5,215.8 L102.3,217.7 L102.1,214.8 L99.6,213.2 L102.4,212.1 L103.1,209.2 L105.0,211.6Z M109.4,225.7 L106.7,224.4 L106.3,221.5 L104.2,223.6 L101.2,223.1 L102.6,225.7 L101.2,228.4 L104.2,227.9 L106.3,230.0 L106.7,227.1Z M112.8,216.2 L110.3,217.9 L107.5,216.7 L108.3,219.6 L106.4,221.9 L109.4,222.0 L111.0,224.5 L112.0,221.8 L114.9,221.0 L112.6,219.2Z M110.3,202.9 L111.6,205.6 L114.6,206.0 L112.4,208.1 L112.9,211.1 L110.3,209.7 L107.6,211.1 L108.1,208.1 L106.0,206.0 L109.0,205.6Z M119.8,199.5 L118.2,202.0 L119.3,204.8 L116.4,204.0 L114.1,205.9 L114.0,202.9 L111.5,201.3 L114.3,200.3 L115.0,197.4 L116.9,199.7Z M121.2,213.9 L118.5,212.6 L118.1,209.6 L116.0,211.7 L113.1,211.2 L114.5,213.9 L113.1,216.5 L116.0,216.0 L118.1,218.2 L118.5,215.2Z M124.6,204.3 L122.1,206.0 L119.4,204.9 L120.2,207.8 L118.3,210.1 L121.3,210.2 L122.9,212.7 L123.9,209.9 L126.8,209.2 L124.4,207.3Z M122.1,191.1 L123.5,193.8 L126.4,194.2 L124.3,196.3 L124.8,199.2 L122.1,197.8 L119.5,199.2 L120.0,196.3 L117.9,194.2 L120.8,193.8Z M131.7,187.7 L130.0,190.2 L131.1,192.9 L128.3,192.1 L126.0,194.0 L125.9,191.0 L123.3,189.5 L126.1,188.4 L126.9,185.5 L128.7,187.9Z M133.1,202.0 L130.4,200.7 L130.0,197.8 L127.9,199.9 L125.0,199.4 L126.3,202.0 L125.0,204.7 L127.9,204.2 L130.0,206.3 L130.4,203.3Z M136.5,192.5 L134.0,194.1 L131.2,193.0 L132.0,195.9 L130.1,198.2 L133.1,198.3 L134.7,200.8 L135.7,198.0 L138.6,197.3 L136.3,195.5Z M134.0,179.2 L135.3,181.9 L138.3,182.3 L136.1,184.4 L136.6,187.3 L134.0,186.0 L131.4,187.3 L131.9,184.4 L129.7,182.3 L132.7,181.9Z M143.5,175.8 L141.9,178.3 L143.0,181.1 L140.1,180.3 L137.8,182.2 L137.7,179.2 L135.2,177.6 L138.0,176.6 L138.7,173.7 L140.6,176.0Z M144.9,190.2 L142.3,188.8 L141.8,185.9 L139.8,188.0 L136.8,187.5 L138.2,190.2 L136.8,192.8 L139.8,192.3 L141.8,194.4 L142.3,191.5Z M148.3,180.6 L145.9,182.3 L143.1,181.2 L143.9,184.0 L142.0,186.3 L145.0,186.4 L146.6,189.0 L147.6,186.2 L150.5,185.4 L148.2,183.6Z M145.9,167.4 L147.2,170.0 L150.1,170.5 L148.0,172.6 L148.5,175.5 L145.9,174.1 L143.2,175.5 L143.7,172.6 L141.6,170.5 L144.5,170.0Z M155.4,164.0 L153.8,166.4 L154.9,169.2 L152.0,168.4 L149.7,170.3 L149.6,167.3 L147.1,165.7 L149.8,164.7 L150.6,161.8 L152.4,164.1Z M156.8,178.3 L154.1,177.0 L153.7,174.0 L151.6,176.2 L148.7,175.7 L150.1,178.3 L148.7,180.9 L151.6,180.4 L153.7,182.6 L154.1,179.6Z M160.2,168.8 L157.7,170.4 L155.0,169.3 L155.8,172.2 L153.9,174.5 L156.8,174.6 L158.4,177.1 L159.5,174.3 L162.4,173.6 L160.0,171.7Z M157.7,155.5 L159.0,158.2 L162.0,158.6 L159.9,160.7 L160.4,163.6 L157.7,162.2 L155.1,163.6 L155.6,160.7 L153.4,158.6 L156.4,158.2Z M167.3,152.1 L165.6,154.6 L166.7,157.3 L163.8,156.5 L161.6,158.4 L161.4,155.5 L158.9,153.9 L161.7,152.8 L162.4,149.9 L164.3,152.3Z M168.7,166.4 L166.0,165.1 L165.6,162.2 L163.5,164.3 L160.5,163.8 L161.9,166.4 L160.5,169.1 L163.5,168.6 L165.6,170.7 L166.0,167.8Z M172.1,156.9 L169.6,158.6 L166.8,157.4 L167.6,160.3 L165.7,162.6 L168.7,162.7 L170.3,165.3 L171.3,162.5 L174.2,161.7 L171.9,159.9Z M169.6,143.6 L170.9,146.3 L173.8,146.8 L171.7,148.8 L172.2,151.8 L169.6,150.4 L166.9,151.8 L167.4,148.8 L165.3,146.8 L168.3,146.3Z M179.1,140.2 L177.5,142.7 L178.6,145.5 L175.7,144.7 L173.4,146.6 L173.3,143.6 L170.8,142.0 L173.6,141.0 L174.3,138.1 L176.1,140.4Z M180.5,154.6 L177.8,153.3 L177.4,150.3 L175.3,152.4 L172.4,151.9 L173.8,154.6 L172.4,157.2 L175.3,156.7 L177.4,158.9 L177.8,155.9Z M183.9,145.0 L181.4,146.7 L178.7,145.6 L179.5,148.5 L177.6,150.8 L180.6,150.9 L182.2,153.4 L183.2,150.6 L186.1,149.9 L183.7,148.0Z M181.4,131.8 L182.8,134.5 L185.7,134.9 L183.6,137.0 L184.1,139.9 L181.4,138.5 L178.8,139.9 L179.3,137.0 L177.2,134.9 L180.1,134.5Z M191.0,128.4 L189.3,130.9 L190.4,133.6 L187.6,132.8 L185.3,134.7 L185.2,131.7 L182.6,130.2 L185.4,129.1 L186.2,126.2 L188.0,128.6Z M192.4,142.7 L189.7,141.4 L189.3,138.5 L187.2,140.6 L184.3,140.1 L185.6,142.7 L184.3,145.4 L187.2,144.9 L189.3,147.0 L189.7,144.0Z M195.8,133.2 L193.3,134.8 L190.5,133.7 L191.3,136.6 L189.4,138.9 L192.4,139.0 L194.0,141.5 L195.0,138.7 L197.9,138.0 L195.6,136.2Z M193.3,119.9 L194.6,122.6 L197.6,123.0 L195.4,125.1 L195.9,128.1 L193.3,126.7 L190.7,128.1 L191.2,125.1 L189.0,123.0 L192.0,122.6Z M202.8,116.5 L201.2,119.0 L202.3,121.8 L199.4,121.0 L197.1,122.9 L197.0,119.9 L194.5,118.3 L197.3,117.3 L198.0,114.4 L199.9,116.7Z M204.2,130.9 L201.6,129.5 L201.1,126.6 L199.0,128.7 L196.1,128.2 L197.5,130.9 L196.1,133.5 L199.0,133.0 L201.1,135.1 L201.6,132.2Z M207.6,121.3 L205.2,123.0 L202.4,121.9 L203.2,124.7 L201.3,127.0 L204.3,127.2 L205.9,129.7 L206.9,126.9 L209.8,126.1 L207.5,124.3Z M205.2,108.1 L206.5,110.7 L209.4,111.2 L207.3,113.3 L207.8,116.2 L205.2,114.8 L202.5,116.2 L203.0,113.3 L200.9,111.2 L203.8,110.7Z M48.9,294.7 L47.3,297.1 L48.4,299.9 L45.5,299.1 L43.2,301.0 L43.1,298.0 L40.6,296.4 L43.4,295.4 L44.1,292.5 L45.9,294.8Z M51.2,286.2 L52.5,288.9 L55.5,289.3 L53.4,291.4 L53.9,294.3 L51.2,292.9 L48.6,294.3 L49.1,291.4 L47.0,289.3 L49.9,288.9Z M60.8,282.8 L59.1,285.3 L60.2,288.0 L57.4,287.2 L55.1,289.1 L54.9,286.2 L52.4,284.6 L55.2,283.5 L56.0,280.6 L57.8,283.0Z M62.2,297.1 L59.5,295.8 L59.1,292.9 L57.0,295.0 L54.0,294.5 L55.4,297.1 L54.0,299.8 L57.0,299.3 L59.1,301.4 L59.5,298.5Z M65.6,287.6 L63.1,289.3 L60.3,288.1 L61.1,291.0 L59.2,293.3 L62.2,293.4 L63.8,295.9 L64.8,293.2 L67.7,292.4 L65.4,290.6Z M63.1,274.3 L64.4,277.0 L67.4,277.4 L65.2,279.5 L65.7,282.5 L63.1,281.1 L60.4,282.5 L61.0,279.5 L58.8,277.4 L61.8,277.0Z M72.6,270.9 L71.0,273.4 L72.1,276.2 L69.2,275.4 L66.9,277.3 L66.8,274.3 L64.3,272.7 L67.1,271.7 L67.8,268.8 L69.7,271.1Z M74.0,285.3 L71.3,284.0 L70.9,281.0 L68.8,283.1 L65.9,282.6 L67.3,285.3 L65.9,287.9 L68.8,287.4 L70.9,289.6 L71.3,286.6Z M77.4,275.7 L75.0,277.4 L72.2,276.3 L73.0,279.2 L71.1,281.5 L74.1,281.6 L75.7,284.1 L76.7,281.3 L79.6,280.6 L77.2,278.7Z M74.9,262.5 L76.3,265.2 L79.2,265.6 L77.1,267.7 L77.6,270.6 L74.9,269.2 L72.3,270.6 L72.8,267.7 L70.7,265.6 L73.6,265.2Z M84.5,259.1 L82.8,261.6 L83.9,264.3 L81.1,263.5 L78.8,265.4 L78.7,262.4 L76.1,260.9 L78.9,259.8 L79.7,256.9 L81.5,259.3Z M85.9,273.4 L83.2,272.1 L82.8,269.2 L80.7,271.3 L77.8,270.8 L79.1,273.4 L77.8,276.1 L80.7,275.6 L82.8,277.7 L83.2,274.7Z M89.3,263.9 L86.8,265.5 L84.0,264.4 L84.9,267.3 L82.9,269.6 L85.9,269.7 L87.5,272.2 L88.6,269.4 L91.4,268.7 L89.1,266.9Z M86.8,250.6 L88.1,253.3 L91.1,253.7 L88.9,255.8 L89.4,258.7 L86.8,257.4 L84.2,258.7 L84.7,255.8 L82.5,253.7 L85.5,253.3Z M96.4,247.2 L94.7,249.7 L95.8,252.5 L92.9,251.7 L90.6,253.6 L90.5,250.6 L88.0,249.0 L90.8,248.0 L91.5,245.1 L93.4,247.4Z M97.7,261.6 L95.1,260.2 L94.6,257.3 L92.6,259.4 L89.6,258.9 L91.0,261.6 L89.6,264.2 L92.6,263.7 L94.6,265.8 L95.1,262.9Z M101.2,252.0 L98.7,253.7 L95.9,252.6 L96.7,255.4 L94.8,257.7 L97.8,257.8 L99.4,260.4 L100.4,257.6 L103.3,256.8 L101.0,255.0Z M98.7,238.8 L100.0,241.4 L102.9,241.9 L100.8,244.0 L101.3,246.9 L98.7,245.5 L96.0,246.9 L96.5,244.0 L94.4,241.9 L97.3,241.4Z M108.2,235.4 L106.6,237.8 L107.7,240.6 L104.8,239.8 L102.5,241.7 L102.4,238.7 L99.9,237.1 L102.7,236.1 L103.4,233.2 L105.2,235.5Z M109.6,249.7 L106.9,248.4 L106.5,245.4 L104.4,247.6 L101.5,247.1 L102.9,249.7 L101.5,252.3 L104.4,251.8 L106.5,254.0 L106.9,251.0Z M113.0,240.2 L110.5,241.8 L107.8,240.7 L108.6,243.6 L106.7,245.9 L109.6,246.0 L111.2,248.5 L112.3,245.7 L115.2,245.0 L112.8,243.1Z M110.5,226.9 L111.8,229.6 L114.8,230.0 L112.7,232.1 L113.2,235.0 L110.5,233.6 L107.9,235.0 L108.4,232.1 L106.3,230.0 L109.2,229.6Z M120.1,223.5 L118.4,226.0 L119.5,228.7 L116.6,227.9 L114.4,229.8 L114.2,226.9 L111.7,225.3 L114.5,224.2 L115.2,221.3 L117.1,223.7Z M121.5,237.8 L118.8,236.5 L118.4,233.6 L116.3,235.7 L113.3,235.2 L114.7,237.8 L113.3,240.5 L116.3,240.0 L118.4,242.1 L118.8,239.2Z M124.9,228.3 L122.4,230.0 L119.6,228.8 L120.4,231.7 L118.5,234.0 L121.5,234.1 L123.1,236.7 L124.1,233.9 L127.0,233.1 L124.7,231.3Z M122.4,215.0 L123.7,217.7 L126.7,218.2 L124.5,220.2 L125.0,223.2 L122.4,221.8 L119.7,223.2 L120.2,220.2 L118.1,218.2 L121.1,217.7Z M131.9,211.6 L130.3,214.1 L131.4,216.9 L128.5,216.1 L126.2,218.0 L126.1,215.0 L123.6,213.4 L126.4,212.4 L127.1,209.5 L129.0,211.8Z M133.3,226.0 L130.6,224.7 L130.2,221.7 L128.1,223.8 L125.2,223.3 L126.6,226.0 L125.2,228.6 L128.1,228.1 L130.2,230.3 L130.6,227.3Z M136.7,216.4 L134.3,218.1 L131.5,217.0 L132.3,219.9 L130.4,222.2 L133.4,222.3 L135.0,224.8 L136.0,222.0 L138.9,221.3 L136.5,219.4Z M134.2,203.2 L135.6,205.9 L138.5,206.3 L136.4,208.4 L136.9,211.3 L134.2,209.9 L131.6,211.3 L132.1,208.4 L130.0,206.3 L132.9,205.9Z M143.8,199.8 L142.1,202.3 L143.2,205.0 L140.4,204.2 L138.1,206.1 L138.0,203.1 L135.4,201.6 L138.2,200.5 L139.0,197.6 L140.8,200.0Z M145.2,214.1 L142.5,212.8 L142.1,209.9 L140.0,212.0 L137.1,211.5 L138.4,214.1 L137.1,216.8 L140.0,216.3 L142.1,218.4 L142.5,215.4Z M148.6,204.6 L146.1,206.2 L143.3,205.1 L144.2,208.0 L142.2,210.3 L145.2,210.4 L146.8,212.9 L147.8,210.1 L150.7,209.4 L148.4,207.6Z M146.1,191.3 L147.4,194.0 L150.4,194.4 L148.2,196.5 L148.7,199.5 L146.1,198.1 L143.5,199.5 L144.0,196.5 L141.8,194.4 L144.8,194.0Z M155.6,187.9 L154.0,190.4 L155.1,193.2 L152.2,192.4 L149.9,194.3 L149.8,191.3 L147.3,189.7 L150.1,188.7 L150.8,185.8 L152.7,188.1Z M157.0,202.3 L154.4,200.9 L153.9,198.0 L151.9,200.1 L148.9,199.6 L150.3,202.3 L148.9,204.9 L151.9,204.4 L153.9,206.5 L154.4,203.6Z M160.5,192.7 L158.0,194.4 L155.2,193.3 L156.0,196.1 L154.1,198.4 L157.1,198.6 L158.7,201.1 L159.7,198.3 L162.6,197.5 L160.3,195.7Z M158.0,179.5 L159.3,182.1 L162.2,182.6 L160.1,184.7 L160.6,187.6 L158.0,186.2 L155.3,187.6 L155.8,184.7 L153.7,182.6 L156.6,182.1Z M167.5,176.1 L165.9,178.5 L167.0,181.3 L164.1,180.5 L161.8,182.4 L161.7,179.4 L159.2,177.8 L162.0,176.8 L162.7,173.9 L164.5,176.3Z M168.9,190.4 L166.2,189.1 L165.8,186.1 L163.7,188.3 L160.8,187.8 L162.2,190.4 L160.8,193.0 L163.7,192.5 L165.8,194.7 L166.2,191.7Z M172.3,180.9 L169.8,182.5 L167.1,181.4 L167.9,184.3 L166.0,186.6 L168.9,186.7 L170.5,189.2 L171.6,186.4 L174.5,185.7 L172.1,183.8Z M169.8,167.6 L171.1,170.3 L174.1,170.7 L172.0,172.8 L172.5,175.7 L169.8,174.3 L167.2,175.7 L167.7,172.8 L165.6,170.7 L168.5,170.3Z M179.4,164.2 L177.7,166.7 L178.8,169.4 L175.9,168.6 L173.7,170.5 L173.5,167.6 L171.0,166.0 L173.8,164.9 L174.5,162.1 L176.4,164.4Z M180.8,178.5 L178.1,177.2 L177.7,174.3 L175.6,176.4 L172.6,175.9 L174.0,178.5 L172.6,181.2 L175.6,180.7 L177.7,182.8 L178.1,179.9Z M184.2,169.0 L181.7,170.7 L178.9,169.6 L179.7,172.4 L177.8,174.7 L180.8,174.8 L182.4,177.4 L183.4,174.6 L186.3,173.8 L184.0,172.0Z M181.7,155.8 L183.0,158.4 L186.0,158.9 L183.8,160.9 L184.3,163.9 L181.7,162.5 L179.0,163.9 L179.5,160.9 L177.4,158.9 L180.4,158.4Z M191.2,152.3 L189.6,154.8 L190.7,157.6 L187.8,156.8 L185.5,158.7 L185.4,155.7 L182.9,154.1 L185.7,153.1 L186.4,150.2 L188.3,152.5Z M192.6,166.7 L189.9,165.4 L189.5,162.4 L187.4,164.6 L184.5,164.0 L185.9,166.7 L184.5,169.3 L187.4,168.8 L189.5,171.0 L189.9,168.0Z M196.0,157.1 L193.5,158.8 L190.8,157.7 L191.6,160.6 L189.7,162.9 L192.7,163.0 L194.3,165.5 L195.3,162.7 L198.2,162.0 L195.8,160.1Z M193.5,143.9 L194.9,146.6 L197.8,147.0 L195.7,149.1 L196.2,152.0 L193.5,150.6 L190.9,152.0 L191.4,149.1 L189.3,147.0 L192.2,146.6Z M203.1,140.5 L201.4,143.0 L202.5,145.7 L199.7,144.9 L197.4,146.8 L197.3,143.8 L194.7,142.3 L197.5,141.2 L198.3,138.3 L200.1,140.7Z M204.5,154.8 L201.8,153.5 L201.4,150.6 L199.3,152.7 L196.4,152.2 L197.7,154.8 L196.4,157.5 L199.3,157.0 L201.4,159.1 L201.8,156.1Z M207.9,145.3 L205.4,146.9 L202.6,145.8 L203.4,148.7 L201.5,151.0 L204.5,151.1 L206.1,153.6 L207.1,150.8 L210.0,150.1 L207.7,148.3Z M205.4,132.0 L206.7,134.7 L209.7,135.1 L207.5,137.2 L208.0,140.2 L205.4,138.8 L202.8,140.2 L203.3,137.2 L201.1,135.1 L204.1,134.7Z M72.9,294.9 L71.2,297.4 L72.3,300.1 L69.5,299.3 L67.2,301.2 L67.0,298.3 L64.5,296.7 L67.3,295.6 L68.1,292.7 L69.9,295.1Z M75.2,286.4 L76.5,289.1 L79.5,289.6 L77.3,291.6 L77.8,294.6 L75.2,293.2 L72.6,294.6 L73.1,291.6 L70.9,289.6 L73.9,289.1Z M84.7,283.0 L83.1,285.5 L84.2,288.3 L81.3,287.5 L79.0,289.4 L78.9,286.4 L76.4,284.8 L79.2,283.8 L79.9,280.9 L81.8,283.2Z M86.1,297.4 L83.5,296.1 L83.0,293.1 L80.9,295.2 L78.0,294.7 L79.4,297.4 L78.0,300.0 L80.9,299.5 L83.0,301.7 L83.5,298.7Z M89.5,287.8 L87.1,289.5 L84.3,288.4 L85.1,291.3 L83.2,293.6 L86.2,293.7 L87.8,296.2 L88.8,293.4 L91.7,292.7 L89.3,290.8Z M87.0,274.6 L88.4,277.3 L91.3,277.7 L89.2,279.8 L89.7,282.7 L87.0,281.3 L84.4,282.7 L84.9,279.8 L82.8,277.7 L85.7,277.3Z M96.6,271.2 L94.9,273.7 L96.0,276.4 L93.2,275.6 L90.9,277.5 L90.8,274.5 L88.2,273.0 L91.0,271.9 L91.8,269.0 L93.6,271.4Z M98.0,285.5 L95.3,284.2 L94.9,281.3 L92.8,283.4 L89.9,282.9 L91.2,285.5 L89.9,288.2 L92.8,287.7 L94.9,289.8 L95.3,286.8Z M101.4,276.0 L98.9,277.6 L96.1,276.5 L97.0,279.4 L95.0,281.7 L98.0,281.8 L99.6,284.3 L100.7,281.5 L103.5,280.8 L101.2,279.0Z M98.9,262.7 L100.2,265.4 L103.2,265.8 L101.0,267.9 L101.5,270.9 L98.9,269.5 L96.3,270.9 L96.8,267.9 L94.6,265.8 L97.6,265.4Z M108.5,259.3 L106.8,261.8 L107.9,264.6 L105.0,263.8 L102.7,265.7 L102.6,262.7 L100.1,261.1 L102.9,260.1 L103.6,257.2 L105.5,259.5Z M109.8,273.7 L107.2,272.3 L106.7,269.4 L104.7,271.5 L101.7,271.0 L103.1,273.7 L101.7,276.3 L104.7,275.8 L106.7,277.9 L107.2,275.0Z M113.3,264.1 L110.8,265.8 L108.0,264.7 L108.8,267.5 L106.9,269.8 L109.9,270.0 L111.5,272.5 L112.5,269.7 L115.4,268.9 L113.1,267.1Z M110.8,250.9 L112.1,253.5 L115.0,254.0 L112.9,256.1 L113.4,259.0 L110.8,257.6 L108.1,259.0 L108.6,256.1 L106.5,254.0 L109.4,253.5Z M120.3,247.5 L118.7,249.9 L119.8,252.7 L116.9,251.9 L114.6,253.8 L114.5,250.8 L112.0,249.2 L114.8,248.2 L115.5,245.3 L117.3,247.7Z M121.7,261.8 L119.0,260.5 L118.6,257.5 L116.5,259.7 L113.6,259.2 L115.0,261.8 L113.6,264.4 L116.5,263.9 L118.6,266.1 L119.0,263.1Z M125.1,252.3 L122.6,253.9 L119.9,252.8 L120.7,255.7 L118.8,258.0 L121.7,258.1 L123.3,260.6 L124.4,257.8 L127.3,257.1 L124.9,255.2Z M122.6,239.0 L123.9,241.7 L126.9,242.1 L124.8,244.2 L125.3,247.1 L122.6,245.7 L120.0,247.1 L120.5,244.2 L118.4,242.1 L121.3,241.7Z M132.2,235.6 L130.5,238.1 L131.6,240.8 L128.8,240.0 L126.5,241.9 L126.3,239.0 L123.8,237.4 L126.6,236.3 L127.4,233.5 L129.2,235.8Z M133.6,249.9 L130.9,248.6 L130.5,245.7 L128.4,247.8 L125.4,247.3 L126.8,249.9 L125.4,252.6 L128.4,252.1 L130.5,254.2 L130.9,251.3Z M137.0,240.4 L134.5,242.1 L131.7,241.0 L132.5,243.8 L130.6,246.1 L133.6,246.2 L135.2,248.8 L136.2,246.0 L139.1,245.2 L136.8,243.4Z M134.5,227.2 L135.8,229.8 L138.8,230.3 L136.6,232.3 L137.1,235.3 L134.5,233.9 L131.8,235.3 L132.4,232.3 L130.2,230.3 L133.2,229.8Z M144.0,223.7 L142.4,226.2 L143.5,229.0 L140.6,228.2 L138.3,230.1 L138.2,227.1 L135.7,225.5 L138.5,224.5 L139.2,221.6 L141.1,223.9Z M145.4,238.1 L142.7,236.8 L142.3,233.8 L140.2,236.0 L137.3,235.4 L138.7,238.1 L137.3,240.7 L140.2,240.2 L142.3,242.4 L142.7,239.4Z M148.8,228.5 L146.4,230.2 L143.6,229.1 L144.4,232.0 L142.5,234.3 L145.5,234.4 L147.1,236.9 L148.1,234.1 L151.0,233.4 L148.6,231.5Z M146.3,215.3 L147.7,218.0 L150.6,218.4 L148.5,220.5 L149.0,223.4 L146.3,222.0 L143.7,223.4 L144.2,220.5 L142.1,218.4 L145.0,218.0Z M155.9,211.9 L154.2,214.4 L155.3,217.1 L152.5,216.3 L150.2,218.2 L150.1,215.2 L147.5,213.7 L150.3,212.6 L151.1,209.7 L152.9,212.1Z M157.3,226.2 L154.6,224.9 L154.2,222.0 L152.1,224.1 L149.2,223.6 L150.5,226.2 L149.2,228.9 L152.1,228.4 L154.2,230.5 L154.6,227.5Z M160.7,216.7 L158.2,218.3 L155.4,217.2 L156.3,220.1 L154.3,222.4 L157.3,222.5 L158.9,225.0 L160.0,222.2 L162.8,221.5 L160.5,219.7Z M158.2,203.4 L159.5,206.1 L162.5,206.5 L160.3,208.6 L160.8,211.6 L158.2,210.2 L155.6,211.6 L156.1,208.6 L153.9,206.5 L156.9,206.1Z M167.8,200.0 L166.1,202.5 L167.2,205.3 L164.3,204.5 L162.0,206.4 L161.9,203.4 L159.4,201.8 L162.2,200.8 L162.9,197.9 L164.8,200.2Z M169.1,214.4 L166.5,213.0 L166.0,210.1 L164.0,212.2 L161.0,211.7 L162.4,214.4 L161.0,217.0 L164.0,216.5 L166.0,218.6 L166.5,215.7Z M172.6,204.8 L170.1,206.5 L167.3,205.4 L168.1,208.2 L166.2,210.5 L169.2,210.7 L170.8,213.2 L171.8,210.4 L174.7,209.6 L172.4,207.8Z M170.1,191.6 L171.4,194.2 L174.3,194.7 L172.2,196.8 L172.7,199.7 L170.1,198.3 L167.4,199.7 L167.9,196.8 L165.8,194.7 L168.7,194.2Z M179.6,188.2 L178.0,190.6 L179.1,193.4 L176.2,192.6 L173.9,194.5 L173.8,191.5 L171.3,189.9 L174.1,188.9 L174.8,186.0 L176.6,188.4Z M181.0,202.5 L178.3,201.2 L177.9,198.2 L175.8,200.4 L172.9,199.9 L174.3,202.5 L172.9,205.1 L175.8,204.6 L177.9,206.8 L178.3,203.8Z M184.4,193.0 L181.9,194.6 L179.2,193.5 L180.0,196.4 L178.1,198.7 L181.0,198.8 L182.6,201.3 L183.7,198.5 L186.6,197.8 L184.2,195.9Z M181.9,179.7 L183.2,182.4 L186.2,182.8 L184.1,184.9 L184.6,187.8 L181.9,186.4 L179.3,187.8 L179.8,184.9 L177.7,182.8 L180.6,182.4Z M191.5,176.3 L189.8,178.8 L190.9,181.6 L188.0,180.7 L185.8,182.6 L185.6,179.7 L183.1,178.1 L185.9,177.0 L186.6,174.2 L188.5,176.5Z M192.9,190.6 L190.2,189.3 L189.8,186.4 L187.7,188.5 L184.7,188.0 L186.1,190.6 L184.7,193.3 L187.7,192.8 L189.8,194.9 L190.2,192.0Z M196.3,181.1 L193.8,182.8 L191.0,181.7 L191.8,184.5 L189.9,186.8 L192.9,186.9 L194.5,189.5 L195.5,186.7 L198.4,185.9 L196.1,184.1Z M193.8,167.9 L195.1,170.5 L198.1,171.0 L195.9,173.0 L196.4,176.0 L193.8,174.6 L191.1,176.0 L191.6,173.0 L189.5,171.0 L192.5,170.5Z M203.3,164.4 L201.7,166.9 L202.8,169.7 L199.9,168.9 L197.6,170.8 L197.5,167.8 L195.0,166.2 L197.8,165.2 L198.5,162.3 L200.4,164.6Z M204.7,178.8 L202.0,177.5 L201.6,174.5 L199.5,176.7 L196.6,176.1 L198.0,178.8 L196.6,181.4 L199.5,180.9 L201.6,183.1 L202.0,180.1Z M208.1,169.2 L205.7,170.9 L202.9,169.8 L203.7,172.7 L201.8,175.0 L204.8,175.1 L206.4,177.6 L207.4,174.8 L210.3,174.1 L207.9,172.2Z M205.6,156.0 L207.0,158.7 L209.9,159.1 L207.8,161.2 L208.3,164.1 L205.6,162.7 L203.0,164.1 L203.5,161.2 L201.4,159.1 L204.3,158.7Z M96.8,295.1 L95.2,297.6 L96.3,300.4 L93.4,299.6 L91.1,301.5 L91.0,298.5 L88.5,296.9 L91.3,295.9 L92.0,293.0 L93.9,295.3Z M99.2,286.7 L100.5,289.4 L103.4,289.8 L101.3,291.9 L101.8,294.8 L99.2,293.4 L96.5,294.8 L97.0,291.9 L94.9,289.8 L97.8,289.4Z M108.7,283.3 L107.0,285.8 L108.1,288.5 L105.3,287.7 L103.0,289.6 L102.9,286.6 L100.3,285.1 L103.1,284.0 L103.9,281.1 L105.7,283.5Z M110.1,297.6 L107.4,296.3 L107.0,293.4 L104.9,295.5 L102.0,295.0 L103.4,297.6 L102.0,300.3 L104.9,299.8 L107.0,301.9 L107.4,298.9Z M113.5,288.1 L111.0,289.7 L108.3,288.6 L109.1,291.5 L107.2,293.8 L110.1,293.9 L111.7,296.4 L112.8,293.6 L115.6,292.9 L113.3,291.1Z M111.0,274.8 L112.3,277.5 L115.3,277.9 L113.1,280.0 L113.7,283.0 L111.0,281.6 L108.4,283.0 L108.9,280.0 L106.7,277.9 L109.7,277.5Z M120.6,271.4 L118.9,273.9 L120.0,276.7 L117.1,275.9 L114.8,277.8 L114.7,274.8 L112.2,273.2 L115.0,272.2 L115.7,269.3 L117.6,271.6Z M121.9,285.8 L119.3,284.4 L118.8,281.5 L116.8,283.6 L113.8,283.1 L115.2,285.8 L113.8,288.4 L116.8,287.9 L118.8,290.0 L119.3,287.1Z M125.4,276.2 L122.9,277.9 L120.1,276.8 L120.9,279.6 L119.0,281.9 L122.0,282.1 L123.6,284.6 L124.6,281.8 L127.5,281.0 L125.2,279.2Z M122.9,263.0 L124.2,265.6 L127.1,266.1 L125.0,268.2 L125.5,271.1 L122.9,269.7 L120.2,271.1 L120.7,268.2 L118.6,266.1 L121.6,265.6Z M132.4,259.6 L130.8,262.0 L131.9,264.8 L129.0,264.0 L126.7,265.9 L126.6,262.9 L124.1,261.3 L126.9,260.3 L127.6,257.4 L129.4,259.8Z M133.8,273.9 L131.1,272.6 L130.7,269.6 L128.6,271.8 L125.7,271.3 L127.1,273.9 L125.7,276.5 L128.6,276.0 L130.7,278.2 L131.1,275.2Z M137.2,264.4 L134.7,266.0 L132.0,264.9 L132.8,267.8 L130.9,270.1 L133.9,270.2 L135.4,272.7 L136.5,269.9 L139.4,269.2 L137.0,267.3Z M134.7,251.1 L136.1,253.8 L139.0,254.2 L136.9,256.3 L137.4,259.2 L134.7,257.8 L132.1,259.2 L132.6,256.3 L130.5,254.2 L133.4,253.8Z M144.3,247.7 L142.6,250.2 L143.7,253.0 L140.9,252.1 L138.6,254.0 L138.4,251.1 L135.9,249.5 L138.7,248.4 L139.5,245.6 L141.3,247.9Z M145.7,262.0 L143.0,260.7 L142.6,257.8 L140.5,259.9 L137.5,259.4 L138.9,262.0 L137.5,264.7 L140.5,264.2 L142.6,266.3 L143.0,263.4Z M149.1,252.5 L146.6,254.2 L143.8,253.1 L144.6,255.9 L142.7,258.2 L145.7,258.3 L147.3,260.9 L148.3,258.1 L151.2,257.3 L148.9,255.5Z M146.6,239.3 L147.9,241.9 L150.9,242.4 L148.7,244.4 L149.2,247.4 L146.6,246.0 L144.0,247.4 L144.5,244.4 L142.3,242.4 L145.3,241.9Z M156.1,235.8 L154.5,238.3 L155.6,241.1 L152.7,240.3 L150.4,242.2 L150.3,239.2 L147.8,237.6 L150.6,236.6 L151.3,233.7 L153.2,236.0Z M157.5,250.2 L154.9,248.9 L154.4,245.9 L152.3,248.1 L149.4,247.6 L150.8,250.2 L149.4,252.8 L152.3,252.3 L154.4,254.5 L154.9,251.5Z M160.9,240.6 L158.5,242.3 L155.7,241.2 L156.5,244.1 L154.6,246.4 L157.6,246.5 L159.2,249.0 L160.2,246.2 L163.1,245.5 L160.7,243.6Z M158.5,227.4 L159.8,230.1 L162.7,230.5 L160.6,232.6 L161.1,235.5 L158.5,234.1 L155.8,235.5 L156.3,232.6 L154.2,230.5 L157.1,230.1Z M168.0,224.0 L166.3,226.5 L167.4,229.2 L164.6,228.4 L162.3,230.3 L162.2,227.4 L159.6,225.8 L162.4,224.7 L163.2,221.8 L165.0,224.2Z M169.4,238.3 L166.7,237.0 L166.3,234.1 L164.2,236.2 L161.3,235.7 L162.6,238.3 L161.3,241.0 L164.2,240.5 L166.3,242.6 L166.7,239.6Z M172.8,228.8 L170.3,230.4 L167.5,229.3 L168.4,232.2 L166.4,234.5 L169.4,234.6 L171.0,237.1 L172.1,234.3 L174.9,233.6 L172.6,231.8Z M170.3,215.5 L171.6,218.2 L174.6,218.6 L172.4,220.7 L172.9,223.7 L170.3,222.3 L167.7,223.7 L168.2,220.7 L166.0,218.6 L169.0,218.2Z M179.9,212.1 L178.2,214.6 L179.3,217.4 L176.4,216.6 L174.1,218.5 L174.0,215.5 L171.5,213.9 L174.3,212.9 L175.0,210.0 L176.9,212.3Z M181.2,226.5 L178.6,225.2 L178.1,222.2 L176.1,224.3 L173.1,223.8 L174.5,226.5 L173.1,229.1 L176.1,228.6 L178.1,230.7 L178.6,227.8Z M184.7,216.9 L182.2,218.6 L179.4,217.5 L180.2,220.3 L178.3,222.6 L181.3,222.8 L182.9,225.3 L183.9,222.5 L186.8,221.7 L184.5,219.9Z M182.2,203.7 L183.5,206.3 L186.4,206.8 L184.3,208.9 L184.8,211.8 L182.2,210.4 L179.5,211.8 L180.0,208.9 L177.9,206.8 L180.8,206.3Z M191.7,200.3 L190.1,202.7 L191.2,205.5 L188.3,204.7 L186.0,206.6 L185.9,203.6 L183.4,202.0 L186.2,201.0 L186.9,198.1 L188.7,200.5Z M193.1,214.6 L190.4,213.3 L190.0,210.3 L187.9,212.5 L185.0,212.0 L186.4,214.6 L185.0,217.3 L187.9,216.7 L190.0,218.9 L190.4,215.9Z M196.5,205.1 L194.0,206.7 L191.3,205.6 L192.1,208.5 L190.2,210.8 L193.1,210.9 L194.7,213.4 L195.8,210.6 L198.7,209.9 L196.3,208.0Z M194.0,191.8 L195.3,194.5 L198.3,194.9 L196.2,197.0 L196.7,199.9 L194.0,198.6 L191.4,199.9 L191.9,197.0 L189.8,194.9 L192.7,194.5Z M203.6,188.4 L201.9,190.9 L203.0,193.7 L200.2,192.8 L197.9,194.8 L197.7,191.8 L195.2,190.2 L198.0,189.1 L198.8,186.3 L200.6,188.6Z M205.0,202.8 L202.3,201.4 L201.9,198.5 L199.8,200.6 L196.8,200.1 L198.2,202.8 L196.8,205.4 L199.8,204.9 L201.9,207.0 L202.3,204.1Z M208.4,193.2 L205.9,194.9 L203.1,193.8 L203.9,196.6 L202.0,198.9 L205.0,199.0 L206.6,201.6 L207.6,198.8 L210.5,198.0 L208.2,196.2Z M205.9,180.0 L207.2,182.6 L210.2,183.1 L208.0,185.1 L208.5,188.1 L205.9,186.7 L203.2,188.1 L203.8,185.1 L201.6,183.1 L204.6,182.6Z M120.8,295.4 L119.1,297.9 L120.2,300.6 L117.4,299.8 L115.1,301.7 L115.0,298.8 L112.4,297.2 L115.2,296.1 L116.0,293.2 L117.8,295.6Z M123.1,286.9 L124.4,289.6 L127.4,290.0 L125.3,292.1 L125.8,295.1 L123.1,293.7 L120.5,295.1 L121.0,292.1 L118.8,290.0 L121.8,289.6Z M132.7,283.5 L131.0,286.0 L132.1,288.8 L129.2,288.0 L126.9,289.9 L126.8,286.9 L124.3,285.3 L127.1,284.3 L127.8,281.4 L129.7,283.7Z M134.0,297.9 L131.4,296.6 L130.9,293.6 L128.9,295.7 L125.9,295.2 L127.3,297.9 L125.9,300.5 L128.9,300.0 L130.9,302.1 L131.4,299.2Z M137.5,288.3 L135.0,290.0 L132.2,288.9 L133.0,291.7 L131.1,294.0 L134.1,294.2 L135.7,296.7 L136.7,293.9 L139.6,293.1 L137.3,291.3Z M135.0,275.1 L136.3,277.7 L139.2,278.2 L137.1,280.3 L137.6,283.2 L135.0,281.8 L132.3,283.2 L132.8,280.3 L130.7,278.2 L133.7,277.7Z M144.5,271.7 L142.9,274.1 L144.0,276.9 L141.1,276.1 L138.8,278.0 L138.7,275.0 L136.2,273.4 L139.0,272.4 L139.7,269.5 L141.5,271.9Z M145.9,286.0 L143.2,284.7 L142.8,281.7 L140.7,283.9 L137.8,283.4 L139.2,286.0 L137.8,288.7 L140.7,288.1 L142.8,290.3 L143.2,287.3Z M149.3,276.5 L146.8,278.1 L144.1,277.0 L144.9,279.9 L143.0,282.2 L146.0,282.3 L147.5,284.8 L148.6,282.0 L151.5,281.3 L149.1,279.4Z M146.8,263.2 L148.2,265.9 L151.1,266.3 L149.0,268.4 L149.5,271.3 L146.8,270.0 L144.2,271.3 L144.7,268.4 L142.6,266.3 L145.5,265.9Z M156.4,259.8 L154.7,262.3 L155.8,265.1 L153.0,264.2 L150.7,266.2 L150.5,263.2 L148.0,261.6 L150.8,260.5 L151.6,257.7 L153.4,260.0Z M157.8,274.2 L155.1,272.8 L154.7,269.9 L152.6,272.0 L149.6,271.5 L151.0,274.2 L149.6,276.8 L152.6,276.3 L154.7,278.4 L155.1,275.5Z M161.2,264.6 L158.7,266.3 L155.9,265.2 L156.7,268.0 L154.8,270.3 L157.8,270.4 L159.4,273.0 L160.4,270.2 L163.3,269.4 L161.0,267.6Z M158.7,251.4 L160.0,254.0 L163.0,254.5 L160.8,256.5 L161.3,259.5 L158.7,258.1 L156.1,259.5 L156.6,256.5 L154.4,254.5 L157.4,254.0Z M168.2,247.9 L166.6,250.4 L167.7,253.2 L164.8,252.4 L162.5,254.3 L162.4,251.3 L159.9,249.7 L162.7,248.7 L163.4,245.8 L165.3,248.1Z M169.6,262.3 L167.0,261.0 L166.5,258.0 L164.4,260.2 L161.5,259.7 L162.9,262.3 L161.5,264.9 L164.4,264.4 L166.5,266.6 L167.0,263.6Z M173.0,252.7 L170.6,254.4 L167.8,253.3 L168.6,256.2 L166.7,258.5 L169.7,258.6 L171.3,261.1 L172.3,258.3 L175.2,257.6 L172.8,255.7Z M170.6,239.5 L171.9,242.2 L174.8,242.6 L172.7,244.7 L173.2,247.6 L170.6,246.2 L167.9,247.6 L168.4,244.7 L166.3,242.6 L169.2,242.2Z M180.1,236.1 L178.4,238.6 L179.5,241.3 L176.7,240.5 L174.4,242.4 L174.3,239.5 L171.7,237.9 L174.5,236.8 L175.3,233.9 L177.1,236.3Z M181.5,250.4 L178.8,249.1 L178.4,246.2 L176.3,248.3 L173.4,247.8 L174.8,250.4 L173.4,253.1 L176.3,252.6 L178.4,254.7 L178.8,251.8Z M184.9,240.9 L182.4,242.5 L179.7,241.4 L180.5,244.3 L178.6,246.6 L181.5,246.7 L183.1,249.2 L184.2,246.4 L187.0,245.7 L184.7,243.9Z M182.4,227.6 L183.7,230.3 L186.7,230.7 L184.5,232.8 L185.1,235.8 L182.4,234.4 L179.8,235.8 L180.3,232.8 L178.1,230.7 L181.1,230.3Z M192.0,224.2 L190.3,226.7 L191.4,229.5 L188.5,228.7 L186.2,230.6 L186.1,227.6 L183.6,226.0 L186.4,225.0 L187.1,222.1 L189.0,224.4Z M193.3,238.6 L190.7,237.3 L190.2,234.3 L188.2,236.4 L185.2,235.9 L186.6,238.6 L185.2,241.2 L188.2,240.7 L190.2,242.8 L190.7,239.9Z M196.8,229.0 L194.3,230.7 L191.5,229.6 L192.3,232.4 L190.4,234.7 L193.4,234.9 L195.0,237.4 L196.0,234.6 L198.9,233.8 L196.6,232.0Z M194.3,215.8 L195.6,218.5 L198.5,218.9 L196.4,221.0 L196.9,223.9 L194.3,222.5 L191.6,223.9 L192.1,221.0 L190.0,218.9 L193.0,218.5Z M203.8,212.4 L202.2,214.8 L203.3,217.6 L200.4,216.8 L198.1,218.7 L198.0,215.7 L195.5,214.1 L198.3,213.1 L199.0,210.2 L200.8,212.6Z M205.2,226.7 L202.5,225.4 L202.1,222.4 L200.0,224.6 L197.1,224.1 L198.5,226.7 L197.1,229.4 L200.0,228.8 L202.1,231.0 L202.5,228.0Z M208.6,217.2 L206.1,218.8 L203.4,217.7 L204.2,220.6 L202.3,222.9 L205.3,223.0 L206.8,225.5 L207.9,222.7 L210.8,222.0 L208.4,220.1Z M206.1,203.9 L207.5,206.6 L210.4,207.0 L208.3,209.1 L208.8,212.0 L206.1,210.7 L203.5,212.0 L204.0,209.1 L201.9,207.0 L204.8,206.6Z M144.8,295.6 L143.1,298.1 L144.2,300.9 L141.3,300.1 L139.0,302.0 L138.9,299.0 L136.4,297.4 L139.2,296.4 L139.9,293.5 L141.8,295.8Z M147.1,287.2 L148.4,289.9 L151.3,290.3 L149.2,292.4 L149.7,295.3 L147.1,293.9 L144.4,295.3 L144.9,292.4 L142.8,290.3 L145.8,289.9Z M156.6,283.8 L155.0,286.2 L156.1,289.0 L153.2,288.2 L150.9,290.1 L150.8,287.1 L148.3,285.5 L151.1,284.5 L151.8,281.6 L153.6,284.0Z M158.0,298.1 L155.3,296.8 L154.9,293.8 L152.8,296.0 L149.9,295.5 L151.3,298.1 L149.9,300.8 L152.8,300.2 L154.9,302.4 L155.3,299.4Z M161.4,288.6 L158.9,290.2 L156.2,289.1 L157.0,292.0 L155.1,294.3 L158.1,294.4 L159.6,296.9 L160.7,294.1 L163.6,293.4 L161.2,291.5Z M158.9,275.3 L160.3,278.0 L163.2,278.4 L161.1,280.5 L161.6,283.4 L158.9,282.1 L156.3,283.4 L156.8,280.5 L154.7,278.4 L157.6,278.0Z M168.5,271.9 L166.8,274.4 L167.9,277.2 L165.1,276.3 L162.8,278.3 L162.6,275.3 L160.1,273.7 L162.9,272.7 L163.7,269.8 L165.5,272.1Z M169.9,286.3 L167.2,284.9 L166.8,282.0 L164.7,284.1 L161.7,283.6 L163.1,286.3 L161.7,288.9 L164.7,288.4 L166.8,290.5 L167.2,287.6Z M173.3,276.7 L170.8,278.4 L168.0,277.3 L168.8,280.1 L166.9,282.4 L169.9,282.5 L171.5,285.1 L172.5,282.3 L175.4,281.5 L173.1,279.7Z M170.8,263.5 L172.1,266.1 L175.1,266.6 L172.9,268.6 L173.4,271.6 L170.8,270.2 L168.2,271.6 L168.7,268.6 L166.5,266.6 L169.5,266.1Z M180.3,260.0 L178.7,262.5 L179.8,265.3 L176.9,264.5 L174.6,266.4 L174.5,263.4 L172.0,261.8 L174.8,260.8 L175.5,257.9 L177.4,260.2Z M181.7,274.4 L179.1,273.1 L178.6,270.1 L176.5,272.3 L173.6,271.8 L175.0,274.4 L173.6,277.0 L176.5,276.5 L178.6,278.7 L179.1,275.7Z M185.1,264.8 L182.7,266.5 L179.9,265.4 L180.7,268.3 L178.8,270.6 L181.8,270.7 L183.4,273.2 L184.4,270.4 L187.3,269.7 L184.9,267.8Z M182.7,251.6 L184.0,254.3 L186.9,254.7 L184.8,256.8 L185.3,259.7 L182.7,258.3 L180.0,259.7 L180.5,256.8 L178.4,254.7 L181.3,254.3Z M192.2,248.2 L190.5,250.7 L191.6,253.4 L188.8,252.6 L186.5,254.5 L186.4,251.6 L183.8,250.0 L186.6,248.9 L187.4,246.0 L189.2,248.4Z M193.6,262.5 L190.9,261.2 L190.5,258.3 L188.4,260.4 L185.5,259.9 L186.9,262.5 L185.5,265.2 L188.4,264.7 L190.5,266.8 L190.9,263.9Z M197.0,253.0 L194.5,254.6 L191.8,253.5 L192.6,256.4 L190.7,258.7 L193.6,258.8 L195.2,261.3 L196.3,258.5 L199.1,257.8 L196.8,256.0Z M194.5,239.7 L195.8,242.4 L198.8,242.8 L196.7,244.9 L197.2,247.9 L194.5,246.5 L191.9,247.9 L192.4,244.9 L190.2,242.8 L193.2,242.4Z M204.1,236.3 L202.4,238.8 L203.5,241.6 L200.6,240.8 L198.3,242.7 L198.2,239.7 L195.7,238.1 L198.5,237.1 L199.2,234.2 L201.1,236.5Z M205.5,250.7 L202.8,249.4 L202.3,246.4 L200.3,248.5 L197.3,248.0 L198.7,250.7 L197.3,253.3 L200.3,252.8 L202.3,254.9 L202.8,252.0Z M208.9,241.1 L206.4,242.8 L203.6,241.7 L204.4,244.6 L202.5,246.8 L205.5,247.0 L207.1,249.5 L208.1,246.7 L211.0,246.0 L208.7,244.1Z M206.4,227.9 L207.7,230.6 L210.6,231.0 L208.5,233.1 L209.0,236.0 L206.4,234.6 L203.7,236.0 L204.2,233.1 L202.1,231.0 L205.1,230.6Z M168.7,295.9 L167.1,298.3 L168.2,301.1 L165.3,300.3 L163.0,302.2 L162.9,299.2 L160.4,297.6 L163.2,296.6 L163.9,293.7 L165.7,296.1Z M171.0,287.4 L172.4,290.1 L175.3,290.5 L173.2,292.6 L173.7,295.5 L171.0,294.2 L168.4,295.5 L168.9,292.6 L166.8,290.5 L169.7,290.1Z M180.6,284.0 L178.9,286.5 L180.0,289.3 L177.2,288.5 L174.9,290.4 L174.8,287.4 L172.2,285.8 L175.0,284.8 L175.8,281.9 L177.6,284.2Z M182.0,298.4 L179.3,297.0 L178.9,294.1 L176.8,296.2 L173.9,295.7 L175.2,298.4 L173.9,301.0 L176.8,300.5 L178.9,302.6 L179.3,299.7Z M185.4,288.8 L182.9,290.5 L180.1,289.4 L180.9,292.2 L179.0,294.5 L182.0,294.6 L183.6,297.2 L184.6,294.4 L187.5,293.6 L185.2,291.8Z M182.9,275.6 L184.2,278.2 L187.2,278.7 L185.0,280.7 L185.5,283.7 L182.9,282.3 L180.3,283.7 L180.8,280.7 L178.6,278.7 L181.6,278.2Z M192.4,272.2 L190.8,274.6 L191.9,277.4 L189.0,276.6 L186.7,278.5 L186.6,275.5 L184.1,273.9 L186.9,272.9 L187.6,270.0 L189.5,272.3Z M193.8,286.5 L191.2,285.2 L190.7,282.2 L188.7,284.4 L185.7,283.9 L187.1,286.5 L185.7,289.1 L188.7,288.6 L190.7,290.8 L191.2,287.8Z M197.2,277.0 L194.8,278.6 L192.0,277.5 L192.8,280.4 L190.9,282.7 L193.9,282.8 L195.5,285.3 L196.5,282.5 L199.4,281.8 L197.1,279.9Z M194.8,263.7 L196.1,266.4 L199.0,266.8 L196.9,268.9 L197.4,271.8 L194.8,270.4 L192.1,271.8 L192.6,268.9 L190.5,266.8 L193.4,266.4Z M204.3,260.3 L202.6,262.8 L203.8,265.5 L200.9,264.7 L198.6,266.6 L198.5,263.7 L195.9,262.1 L198.7,261.0 L199.5,258.1 L201.3,260.5Z M205.7,274.6 L203.0,273.3 L202.6,270.4 L200.5,272.5 L197.6,272.0 L199.0,274.6 L197.6,277.3 L200.5,276.8 L202.6,278.9 L203.0,276.0Z M209.1,265.1 L206.6,266.7 L203.9,265.6 L204.7,268.5 L202.8,270.8 L205.7,270.9 L207.3,273.4 L208.4,270.6 L211.3,269.9 L208.9,268.1Z M206.6,251.8 L207.9,254.5 L210.9,254.9 L208.8,257.0 L209.3,260.0 L206.6,258.6 L204.0,260.0 L204.5,257.0 L202.3,254.9 L205.3,254.5Z M192.7,296.1 L191.0,298.6 L192.1,301.4 L189.3,300.6 L187.0,302.5 L186.9,299.5 L184.3,297.9 L187.1,296.9 L187.9,294.0 L189.7,296.3Z M195.0,287.7 L196.3,290.3 L199.3,290.8 L197.1,292.8 L197.6,295.8 L195.0,294.4 L192.4,295.8 L192.9,292.8 L190.7,290.8 L193.7,290.3Z M204.5,284.3 L202.9,286.7 L204.0,289.5 L201.1,288.7 L198.8,290.6 L198.7,287.6 L196.2,286.0 L199.0,285.0 L199.7,282.1 L201.6,284.4Z M205.9,298.6 L203.3,297.3 L202.8,294.3 L200.8,296.5 L197.8,296.0 L199.2,298.6 L197.8,301.2 L200.8,300.7 L202.8,302.9 L203.3,299.9Z M209.3,289.1 L206.9,290.7 L204.1,289.6 L204.9,292.5 L203.0,294.8 L206.0,294.9 L207.6,297.4 L208.6,294.6 L211.5,293.9 L209.2,292.0Z M206.9,275.8 L208.2,278.5 L211.1,278.9 L209.0,281.0 L209.5,283.9 L206.9,282.5 L204.2,283.9 L204.7,281.0 L202.6,278.9 L205.5,278.5Z" />
    </svg>
  </symbol>
  <use href="#icon"></use>
</svg>