<svg xmlns="http://www.w3.org/2000/svg" xmlns:xlink="http://www.w3.org/1999/xlink" width="223.22835" height="311.81104"><symbol viewBox="0 0 223.22835 311.81104" id="icon">
  <defs>
    <pattern patternTransform="matrix(0.70710678,-0.70710678,0.70710678,0.70710678,127.76526,536.84923)" id="pattern4529" xlink:href="#pattern3800" />
    <pattern patternTransform="matrix(-0.11059956,0.11059956,-0.11059956,-0.11059956,-254.02376,74.426221)" xlink:href="#pattern13024-5" />
    <pattern id="pattern13024-5" patternTransform="translate(-254.02376,74.426221)" height="110.74085" width="108.6184" patternUnits="userSpaceOnUse">
      <path style="fill:var(--color-card-back-pattern, #131f67);fill-opacity:1;stroke:none" d="m -1016.046,25.720671 -10.7642,16.120541 7.1773,18.006272 -18.6578,-5.255841 -14.9071,12.390288 -0.767,-19.36883 -16.3904,-10.348653 18.1838,-6.714754 4.7773,-18.786107 12.0052,15.218884 z" transform="translate(1070.3552,-11.763587)" />
      <path transform="matrix(0.8660254,0.5,-0.5,0.8660254,946.33909,568.72784)" d="m -1016.046,25.720671 -10.7642,16.120541 7.1773,18.006272 -18.6578,-5.255841 -14.9071,12.390288 -0.767,-19.36883 -16.3904,-10.348653 18.1838,-6.714754 4.7773,-18.786107 12.0052,15.218884 z" style="fill:var(--color-card-back-pattern, #131f67);fill-opacity:1;stroke:none" />
      <path transform="translate(1124.6644,-11.763587)" style="fill:var(--color-card-back-pattern, #131f67);fill-opacity:1;stroke:none" d="m -1016.046,25.720671 -10.7642,16.120541 7.1773,18.006272 -18.6578,-5.255841 -14.9071,12.390288 -0.767,-19.36883 -16.3904,-10.348653 18.1838,-6.714754 4.7773,-18.786107 12.0052,15.218884 z" />
      <path transform="matrix(0.8660254,0.5,-0.5,0.8660254,1000.6483,568.72784)" d="m -1016.046,25.720671 -10.7642,16.120541 7.1773,18.006272 -18.6578,-5.255841 -14.9071,12.390288 -0.767,-19.36883 -16.3904,-10.348653 18.1838,-6.714754 4.7773,-18.786107 12.0052,15.218884 z" style="fill:var(--color-card-back-pattern, #131f67);fill-opacity:1;stroke:none" />
    </pattern>
    <pattern patternTransform="matrix(0.10623121,-0.1062312,0.10623121,0.1062312,-605.82881,365.81179)" xlink:href="#pattern13074-4" />
    <pattern patternTransform="matrix(0.10623121,-0.1062312,0.10623121,0.1062312,-605.82881,365.81179)" id="pattern13074-4" xlink:href="#pattern13064-2" />
    <pattern patternTransform="matrix(0.10623121,-0.1062312,0.10623121,0.1062312,-836.82881,38.811786)" id="pattern13064-2" xlink:href="#pattern8526-950-188-3" />
    <pattern patternTransform="matrix(0.10623121,-0.1062312,0.10623121,0.1062312,13.113538,22.901883)" id="pattern8526-950-188-3" xlink:href="#pattern8519-687-26-2" />
    <pattern patternTransform="matrix(0.10623121,-0.1062312,0.10623121,0.1062312,-23.656015,100.68363)" id="pattern8519-687-26-2" xlink:href="#pattern8507-266-27-2" />
    <pattern patternTransform="matrix(0.10623119,-0.10623119,0.10623119,0.10623119,194.54709,-74.729113)" id="pattern8507-266-27-2" xlink:href="#pattern8501-248-271-1" />
    <pattern patternTransform="matrix(0.0652057,-0.0652057,0.0652057,0.0652057,194.54709,-74.729113)" id="pattern8501-248-271-1" xlink:href="#pattern8475-545-163-6" />
    <pattern patternTransform="matrix(0.11006325,-0.11006325,0.11006325,0.11006325,-254.02376,74.426221)" id="pattern8475-545-163-6" xlink:href="#pattern8463-7-486-8" />
    <pattern id="pattern8463-7-486-8" patternTransform="translate(-254.02376,74.426221)" height="110.74085" width="108.6184" patternUnits="userSpaceOnUse">
      <path style="fill:var(--color-card-suit-red, #d40000);fill-opacity:1;stroke:none" d="m -1016.046,25.720671 -10.7642,16.120541 7.1773,18.006272 -18.6578,-5.255841 -14.9071,12.390288 -0.767,-19.36883 -16.3904,-10.348653 18.1838,-6.714754 4.7773,-18.786107 12.0052,15.218884 z" transform="translate(1070.3552,-11.763587)" />
      <path transform="matrix(0.8660254,0.5,-0.5,0.8660254,946.33909,568.72784)" d="m -1016.046,25.720671 -10.7642,16.120541 7.1773,18.006272 -18.6578,-5.255841 -14.9071,12.390288 -0.767,-19.36883 -16.3904,-10.348653 18.1838,-6.714754 4.7773,-18.786107 12.0052,15.218884 z" style="fill:var(--color-card-suit-red, #d40000);fill-opacity:1;stroke:none" />
      <path transform="translate(1124.6644,-11.763587)" style="fill:var(--color-card-suit-red, #d40000);fill-opacity:1;stroke:none" d="m -1016.046,25.720671 -10.7642,16.120541 7.1773,18.006272 -18.6578,-5.255841 -14.9071,12.390288 -0.767,-19.36883 -16.3904,-10.348653 18.1838,-6.714754 4.7773,-18.786107 12.0052,15.218884 z" />
      <path transform="matrix(0.8660254,0.5,-0.5,0.8660254,1000.6483,568.72784)" d="m -1016.046,25.720671 -10.7642,16.120541 7.1773,18.006272 -18.6578,-5.255841 -14.9071,12.390288 -0.767,-19.36883 -16.3904,-10.348653 18.1838,-6.714754 4.7773,-18.786107 12.0052,15.218884 z" style="fill:var(--color-card-suit-red, #d40000);fill-opacity:1;stroke:none" />
    </pattern>
    <pattern patternTransform="translate(-254.02376,74.426221)" height="110.74085" width="108.6184" patternUnits="userSpaceOnUse">
      <path style="fill:var(--color-card-suit-red, #d40000);fill-opacity:1;stroke:none" d="m -1016.046,25.720671 -10.7642,16.120541 7.1773,18.006272 -18.6578,-5.255841 -14.9071,12.390288 -0.767,-19.36883 -16.3904,-10.348653 18.1838,-6.714754 4.7773,-18.786107 12.0052,15.218884 z" transform="translate(1070.3552,-11.763587)" />
      <path transform="matrix(0.8660254,0.5,-0.5,0.8660254,946.33909,568.72784)" d="m -1016.046,25.720671 -10.7642,16.120541 7.1773,18.006272 -18.6578,-5.255841 -14.9071,12.390288 -0.767,-19.36883 -16.3904,-10.348653 18.1838,-6.714754 4.7773,-18.786107 12.0052,15.218884 z" style="fill:var(--color-card-suit-red, #d40000);fill-opacity:1;stroke:none" />
      <path transform="translate(1124.6644,-11.763587)" style="fill:var(--color-card-suit-red, #d40000);fill-opacity:1;stroke:none" d="m -1016.046,25.720671 -10.7642,16.120541 7.1773,18.006272 -18.6578,-5.255841 -14.9071,12.390288 -0.767,-19.36883 -16.3904,-10.348653 18.1838,-6.714754 4.7773,-18.786107 12.0052,15.218884 z" />
      <path transform="matrix(0.8660254,0.5,-0.5,0.8660254,1000.6483,568.72784)" d="m -1016.046,25.720671 -10.7642,16.120541 7.1773,18.006272 -18.6578,-5.255841 -14.9071,12.390288 -0.767,-19.36883 -16.3904,-10.348653 18.1838,-6.714754 4.7773,-18.786107 12.0052,15.218884 z" style="fill:var(--color-card-suit-red, #d40000);fill-opacity:1;stroke:none" />
    </pattern>
    <pattern id="pattern3800" patternTransform="translate(127.76526,536.84923)" height="17.115901" width="16.771802" patternUnits="userSpaceOnUse">
      <g transform="translate(-127.76526,-536.84923)">
        <path transform="matrix(0.62548599,0,0,0.62548599,47.849879,201.05756)" d="m 139.93132,538.16935 -1.53091,4.51447 2.85103,3.82044 -4.7666,-0.0609 -2.75244,3.89206 -1.41502,-4.55212 -4.55212,-1.41502 3.89206,-2.75244 -0.0609,-4.76659 3.82044,2.85102 z" style="fill:var(--color-card-suit-red, #d40000);fill-opacity:1;stroke:none" />
        <path style="fill:var(--color-card-suit-red, #d40000);fill-opacity:1;stroke:none" d="m 139.93132,538.16935 -1.53091,4.51447 2.85103,3.82044 -4.7666,-0.0609 -2.75244,3.89206 -1.41502,-4.55212 -4.55212,-1.41502 3.89206,-2.75244 -0.0609,-4.76659 3.82044,2.85102 z" transform="matrix(0.312743,0.54168676,-0.54168676,0.312743,392.29373,297.90436)" />
        <path style="fill:var(--color-card-suit-red, #d40000);fill-opacity:1;stroke:none" d="m 139.93132,538.16935 -1.53091,4.51447 2.85103,3.82044 -4.7666,-0.0609 -2.75244,3.89206 -1.41502,-4.55212 -4.55212,-1.41502 3.89206,-2.75244 -0.0609,-4.76659 3.82044,2.85102 z" transform="matrix(0.62548599,0,0,-0.62548599,47.849879,889.7568)" />
        <path transform="matrix(0.312743,-0.54168676,-0.54168676,-0.312743,392.29373,792.91)" d="m 139.93132,538.16935 -1.53091,4.51447 2.85103,3.82044 -4.7666,-0.0609 -2.75244,3.89206 -1.41502,-4.55212 -4.55212,-1.41502 3.89206,-2.75244 -0.0609,-4.76659 3.82044,2.85102 z" style="fill:var(--color-card-suit-red, #d40000);fill-opacity:1;stroke:none" />
      </g>
    </pattern>
  </defs>
  <g transform="translate(-260.43307,-370.27557)">
    <g transform="translate(811.37551,-119.72681)">
      <rect rx="10.629921" ry="10.629921" y="490.50238" x="-550.44244" height="310.81104" width="222.22835" style="fill:var(--color-card-bg, #ffffff);stroke:var(--color-card-border, #000000);stroke-width:1;stroke-opacity:1" />
      <rect ry="0" y="502.58582" x="-537.85431" height="286.64417" width="197.05205" style="fill:none;stroke:var(--color-card-suit-red, #d40000);stroke-width:4.95238304;stroke-linecap:round;stroke-linejoin:miter;stroke-miterlimit:4;stroke-dasharray:none;stroke-opacity:1" />
      <rect y="506.45496" x="-533.46661" height="278.90585" width="188.27672" style="fill:url(#pattern4529);fill-opacity:1;stroke:var(--color-card-suit-red, #d40000);stroke-width:1;stroke-linecap:round;stroke-linejoin:miter;stroke-miterlimit:4;stroke-dasharray:none;stroke-opacity:1" />
    </g>
  </g>
</symbol><use href="#icon"></use></svg>